<?xml version="1.0" encoding="UTF-8"?>
<!-- Generator: Adobe Illustrator 23.0.1, SVG Export Plug-In . SVG Version: 6.00 Build 0)  -->
<svg version="1.1" id="Layer_1" xmlns="http://www.w3.org/2000/svg" xmlns:xlink="http://www.w3.org/1999/xlink" x="0px" y="0px" viewBox="0 0 1304.9 351.3" style="enable-background:new 0 0 1304.9 351.3;" xml:space="preserve">
<style type="text/css">
	.st0{fill:url(#SVGID_1_);}
	.st1{opacity:0.85;fill:#19355C;enable-background:new    ;}
	.st2{fill:url(#SVGID_2_);}
	.st3{fill:url(#SVGID_3_);}
	.st4{fill:url(#SVGID_4_);}
	.st5{fill:url(#SVGID_5_);}
	.st6{fill:#B7C0CC;}
	.st7{fill:url(#SVGID_6_);}
	.st8{fill:url(#SVGID_7_);}
	.st9{fill:url(#SVGID_8_);}
	.st10{fill:url(#SVGID_9_);}
	.st11{fill:url(#SVGID_10_);}
	.st12{fill:url(#SVGID_11_);}
	.st13{fill:#3B5374;}
	.st14{fill:url(#SVGID_12_);}
	.st15{fill:#777777;}
	.st16{fill:#19355C;}
	.st17{fill:#6EB6FF;}
	.st18{fill:#AFFF59;}
	.st19{fill:#F695FF;}
	.st20{fill:#3EFEE5;}
	.st21{fill:#FFBC46;}
	.st22{fill:#FE606A;}
</style>
<g>
	
		<linearGradient id="SVGID_1_" gradientUnits="userSpaceOnUse" x1="-2647.8091" y1="735.0155" x2="-2647.8091" y2="735.0155" gradientTransform="matrix(-1.1025 -3.040000e-02 -2.880000e-02 1.0462 -2845.241 -574.2667)">
		<stop offset="0" style="stop-color:#0071BC;stop-opacity:0.2"/>
		<stop offset="0.5468" style="stop-color:#0071BC;stop-opacity:0.8"/>
		<stop offset="0.9944" style="stop-color:#0071BC"/>
	</linearGradient>
	<path class="st0" d="M52.8,275.2L52.8,275.2L52.8,275.2L52.8,275.2z"/>
</g>
<g>
	<path class="st1" d="M6.7,227.1l-0.3-1.2C6.5,226.3,6.6,226.7,6.7,227.1z"/>
	<path class="st1" d="M6,224.6l-2.6-11C4.1,217.3,5,221,6,224.6z"/>
	<path class="st1" d="M3.3,213.3l-1.6-9.4C2.2,207,2.7,210.2,3.3,213.3z"/>
	<path class="st1" d="M1.6,203l-1.1-10.4C0.8,196.1,1.1,199.6,1.6,203z"/>
	<path class="st1" d="M12.4,243.7l-3.3-9C10.1,237.7,11.2,240.7,12.4,243.7z"/>
	<path class="st1" d="M20.9,261.7l-0.3-0.5C20.7,261.4,20.8,261.6,20.9,261.7z"/>
	<path class="st1" d="M13.8,247.1l-0.9-2C13.3,245.8,13.5,246.4,13.8,247.1z"/>
	<path class="st1" d="M0.5,192.5l-0.4-8.8C0.1,186.7,0.3,189.6,0.5,192.5z"/>
	
		<linearGradient id="SVGID_2_" gradientUnits="userSpaceOnUse" x1="-779.5936" y1="3130.5864" x2="-95.7522" y2="3130.5864" gradientTransform="matrix(1.7178 3.840000e-02 -1.680000e-02 0.751 1390.0553 -2059.3486)">
		<stop offset="0" style="stop-color:#CCE0F4"/>
		<stop offset="0.1105" style="stop-color:#C3D7EC"/>
		<stop offset="0.2944" style="stop-color:#A9BFD6"/>
		<stop offset="0.529" style="stop-color:#8097B3"/>
		<stop offset="0.8021" style="stop-color:#476183"/>
		<stop offset="1" style="stop-color:#19355C"/>
	</linearGradient>
	<path class="st2" d="M21.6,262.9L21.6,262.9c-0.2-0.4-0.4-0.8-0.6-1.2L21.6,262.9z"/>
	
		<linearGradient id="SVGID_3_" gradientUnits="userSpaceOnUse" x1="-779.5936" y1="3090.5049" x2="-95.7522" y2="3090.5049" gradientTransform="matrix(1.7178 3.840000e-02 -1.680000e-02 0.751 1390.0553 -2059.3486)">
		<stop offset="0" style="stop-color:#DEE4EB"/>
		<stop offset="1" style="stop-color:#B7C0CC"/>
	</linearGradient>
	<path class="st3" d="M874,306.5c-114.5-0.5-138.4-5.8-294.7-67.2c-91.1-35.8-169.3-62.2-237-80c0.8,6.6,1.2,13.3,1.2,20.1   c0,13.4-1.5,26.4-4.4,38.9c47.8,10.5,103.4,26.2,169,48.1c160.2,53.5,243.9,65.7,358.4,63.8c137.5-2.3,238.3-21.5,303.8-71.5   C1109.1,304.6,1012.6,307.1,874,306.5z"/>
	
		<linearGradient id="SVGID_4_" gradientUnits="userSpaceOnUse" x1="-779.5936" y1="3107.0193" x2="-95.7522" y2="3107.0193" gradientTransform="matrix(1.7178 3.840000e-02 -1.680000e-02 0.751 1390.0553 -2059.3486)">
		<stop offset="0" style="stop-color:#CCE0F4"/>
		<stop offset="0.1105" style="stop-color:#C3D7EC"/>
		<stop offset="0.2944" style="stop-color:#A9BFD6"/>
		<stop offset="0.529" style="stop-color:#8097B3"/>
		<stop offset="0.8021" style="stop-color:#476183"/>
		<stop offset="1" style="stop-color:#19355C"/>
	</linearGradient>
	<path class="st4" d="M12.5,244l0.5,1.1c-0.2-0.5-0.4-0.9-0.6-1.4L12.5,244z"/>
	
		<linearGradient id="SVGID_5_" gradientUnits="userSpaceOnUse" x1="-779.5936" y1="3119.8618" x2="-95.7522" y2="3119.8618" gradientTransform="matrix(1.7178 3.840000e-02 -1.680000e-02 0.751 1390.0553 -2059.3486)">
		<stop offset="0" style="stop-color:#CCE0F4"/>
		<stop offset="0.1105" style="stop-color:#C3D7EC"/>
		<stop offset="0.2944" style="stop-color:#A9BFD6"/>
		<stop offset="0.529" style="stop-color:#8097B3"/>
		<stop offset="0.8021" style="stop-color:#476183"/>
		<stop offset="1" style="stop-color:#19355C"/>
	</linearGradient>
	<path class="st5" d="M16.8,254.2l3.8,7c-2.5-4.6-4.8-9.3-6.8-14.1L16.8,254.2z"/>
	<path class="st6" d="M1170.1,258.8c1.1-0.8,2.2-1.7,3.3-2.5C1172.3,257.1,1171.2,257.9,1170.1,258.8z"/>
	
		<linearGradient id="SVGID_6_" gradientUnits="userSpaceOnUse" x1="-779.5936" y1="3038.4126" x2="-774.9655" y2="3038.4126" gradientTransform="matrix(1.7178 3.840000e-02 -1.680000e-02 0.751 1390.0553 -2059.3486)">
		<stop offset="0" style="stop-color:#CCE0F4"/>
		<stop offset="0.1105" style="stop-color:#C3D7EC"/>
		<stop offset="0.2944" style="stop-color:#A9BFD6"/>
		<stop offset="0.529" style="stop-color:#8097B3"/>
		<stop offset="0.8021" style="stop-color:#476183"/>
		<stop offset="1" style="stop-color:#19355C"/>
	</linearGradient>
	<path class="st7" d="M0.5,192.6L0.5,192.6C0.5,192.6,0.5,192.5,0.5,192.6L0.5,192.6z"/>
	
		<linearGradient id="SVGID_7_" gradientUnits="userSpaceOnUse" x1="-779.5936" y1="3052.7119" x2="-220.3993" y2="3052.7119" gradientTransform="matrix(1.7178 3.840000e-02 -1.680000e-02 0.751 1390.0553 -2059.3486)">
		<stop offset="0" style="stop-color:#CCE0F4"/>
		<stop offset="0.1105" style="stop-color:#C3D7EC"/>
		<stop offset="0.2944" style="stop-color:#A9BFD6"/>
		<stop offset="0.529" style="stop-color:#8097B3"/>
		<stop offset="0.8021" style="stop-color:#476183"/>
		<stop offset="1" style="stop-color:#19355C"/>
	</linearGradient>
	<path class="st8" d="M1.7,203.4l0.1,0.4c0-0.3-0.1-0.6-0.1-0.9V203.4z"/>
	
		<linearGradient id="SVGID_8_" gradientUnits="userSpaceOnUse" x1="-779.5936" y1="3026.6108" x2="-758.9611" y2="3026.6108" gradientTransform="matrix(1.7178 3.840000e-02 -1.680000e-02 0.751 1390.0553 -2059.3486)">
		<stop offset="0" style="stop-color:#CCE0F4"/>
		<stop offset="0.1105" style="stop-color:#C3D7EC"/>
		<stop offset="0.2944" style="stop-color:#A9BFD6"/>
		<stop offset="0.529" style="stop-color:#8097B3"/>
		<stop offset="0.8021" style="stop-color:#476183"/>
		<stop offset="1" style="stop-color:#19355C"/>
	</linearGradient>
	<path class="st9" d="M0,183.7L0,183.7C0.1,183.7,0.1,183.7,0,183.7L0,183.7z"/>
	
		<linearGradient id="SVGID_9_" gradientUnits="userSpaceOnUse" x1="-779.5936" y1="3066.1064" x2="-463.5864" y2="3066.1064" gradientTransform="matrix(1.7178 3.840000e-02 -1.680000e-02 0.751 1390.0553 -2059.3486)">
		<stop offset="0" style="stop-color:#CCE0F4"/>
		<stop offset="0.1105" style="stop-color:#C3D7EC"/>
		<stop offset="0.2944" style="stop-color:#A9BFD6"/>
		<stop offset="0.529" style="stop-color:#8097B3"/>
		<stop offset="0.8021" style="stop-color:#476183"/>
		<stop offset="1" style="stop-color:#19355C"/>
	</linearGradient>
	<path class="st10" d="M3.4,213.5v0.1c0-0.1,0-0.2-0.1-0.3L3.4,213.5z"/>
	
		<linearGradient id="SVGID_10_" gradientUnits="userSpaceOnUse" x1="-779.5936" y1="3089.198" x2="-95.7522" y2="3089.198" gradientTransform="matrix(1.7178 3.840000e-02 -1.680000e-02 0.751 1390.0553 -2059.3486)">
		<stop offset="0" style="stop-color:#CCE0F4"/>
		<stop offset="0.1105" style="stop-color:#C3D7EC"/>
		<stop offset="0.2944" style="stop-color:#A9BFD6"/>
		<stop offset="0.529" style="stop-color:#8097B3"/>
		<stop offset="0.8021" style="stop-color:#476183"/>
		<stop offset="1" style="stop-color:#19355C"/>
	</linearGradient>
	<path class="st11" d="M8.1,232.2l0.9,2.5c-0.9-2.5-1.6-5-2.4-7.6L8.1,232.2z"/>
	
		<linearGradient id="SVGID_11_" gradientUnits="userSpaceOnUse" x1="-779.5936" y1="3081.7913" x2="-95.7522" y2="3081.7913" gradientTransform="matrix(1.7178 3.840000e-02 -1.680000e-02 0.751 1390.0553 -2059.3486)">
		<stop offset="0" style="stop-color:#CCE0F4"/>
		<stop offset="0.1105" style="stop-color:#C3D7EC"/>
		<stop offset="0.2944" style="stop-color:#A9BFD6"/>
		<stop offset="0.529" style="stop-color:#8097B3"/>
		<stop offset="0.8021" style="stop-color:#476183"/>
		<stop offset="1" style="stop-color:#19355C"/>
	</linearGradient>
	<path class="st12" d="M6.1,225l0.3,0.9c-0.1-0.4-0.2-0.8-0.3-1.2V225z"/>
	<path class="st13" d="M342.4,159.4C332.5,74,259.9,7.7,171.8,7.7C76.9,7.7,0,84.6,0,179.5c0,1.4,0,2.8,0.1,4.1l0,0v0.1l0.4,8.8v0.1   L1.6,203c0,0.3,0.1,0.6,0.1,0.9l1.6,9.4c0,0.1,0,0.2,0.1,0.3l2.6,11c0.1,0.4,0.2,0.8,0.3,1.2l0.3,1.2c0.7,2.6,1.5,5.1,2.4,7.6   l3.3,9c0.2,0.5,0.4,0.9,0.6,1.4l0.9,2c2.1,4.8,4.3,9.5,6.8,14.1l0.3,0.5c0.2,0.4,0.4,0.8,0.7,1.2l0,0   c29.3,52.7,85.6,88.4,150.2,88.4c81.5,0,149.7-56.7,167.4-132.9c2.9-12.5,4.4-25.5,4.4-38.9C343.6,172.7,343.2,166,342.4,159.4z"/>
	
		<linearGradient id="SVGID_12_" gradientUnits="userSpaceOnUse" x1="-779.6066" y1="3041.7168" x2="-95.7652" y2="3041.7168" gradientTransform="matrix(1.7178 3.840000e-02 -1.680000e-02 0.751 1390.0553 -2059.3486)">
		<stop offset="0" style="stop-color:#6A809D"/>
		<stop offset="0.4541" style="stop-color:#617795"/>
		<stop offset="1" style="stop-color:#4F6686"/>
	</linearGradient>
	<path class="st14" d="M342.4,159.5C177.1,116,74.7,124.4,0.9,174.2L0,183.7v0.1l0.4,8.8v0.1l1.1,10.4c0,0.3,0.1,0.6,0.1,0.9   l1.6,9.4c0,0.1,0,0.2,0.1,0.3l2.6,11c0.1,0.4,0.2,0.8,0.3,1.2l0.3,1.2c0.7,2.6,1.5,5.1,2.4,7.6l3.3,9c0.2,0.5,0.4,0.9,0.6,1.4   l0.9,2c2.1,4.8,4.3,9.5,6.8,14.1l0.3,0.5c0.2,0.4,0.4,0.8,0.7,1.2c76.7-52.8,148.5-81.5,317.6-44.5c2.9-12.5,4.4-25.5,4.4-38.9   C343.6,172.7,343.2,166,342.4,159.5z"/>
</g>
<g>
	<g>
		<g>
			<path class="st15" d="M1066.5,244v-8.8h6.3v8.8H1066.5z"/>
			<path class="st15" d="M1095.7,244.3c-2.4,0-4.7-0.5-6.7-1.5s-3.8-2.3-5.2-4c-1.4-1.7-2.6-3.6-3.4-5.9c-0.8-2.2-1.2-4.5-1.2-7     c0-2.6,0.4-5,1.2-7.3c0.8-2.3,2-4.2,3.4-5.9c1.5-1.7,3.2-3,5.3-4c2-1,4.3-1.5,6.8-1.5c2.9,0,5.4,0.7,7.6,2.1     c2.2,1.4,4,3.2,5.4,5.4V208h6.7v35c0,2.6-0.5,4.9-1.4,7c-1,2-2.3,3.7-4,5.1c-1.7,1.4-3.8,2.5-6.1,3.2c-2.3,0.7-4.9,1.1-7.6,1.1     c-4,0-7.3-0.7-9.9-2s-4.9-3.2-6.6-5.7l4.3-4c1.4,1.9,3.2,3.4,5.3,4.4c2.2,1,4.5,1.5,7,1.5c1.6,0,3-0.2,4.4-0.6     c1.4-0.4,2.6-1.1,3.7-1.9c1.1-0.9,1.9-2,2.5-3.3s0.9-2.9,0.9-4.7v-5.5c-1.3,2.2-3.1,3.9-5.3,5.1     C1100.6,243.8,1098.2,244.3,1095.7,244.3z M1098.2,238.2c1.1,0,2.2-0.2,3.3-0.6c1.1-0.4,2-0.9,2.9-1.6c0.9-0.7,1.7-1.4,2.3-2.3     c0.6-0.8,1.1-1.8,1.4-2.7v-9.4c-0.5-1.1-1.1-2.2-1.8-3.1c-0.7-0.9-1.6-1.8-2.5-2.4c-0.9-0.7-1.9-1.2-3-1.6     c-1.1-0.4-2.1-0.6-3.2-0.6c-1.7,0-3.1,0.4-4.4,1.1c-1.3,0.7-2.4,1.7-3.3,2.8c-0.9,1.2-1.6,2.5-2.1,4s-0.8,3-0.8,4.5     c0,1.7,0.3,3.2,0.9,4.6c0.6,1.4,1.4,2.7,2.4,3.8s2.2,1.9,3.5,2.6C1095.1,237.9,1096.6,238.2,1098.2,238.2z"/>
			<path class="st15" d="M1140.9,244.7c-2.8,0-5.4-0.5-7.7-1.5s-4.2-2.4-5.8-4.1c-1.6-1.7-2.8-3.7-3.7-6c-0.9-2.3-1.3-4.6-1.3-7.1     s0.4-4.9,1.3-7.1c0.9-2.3,2.1-4.3,3.8-6c1.6-1.7,3.6-3.1,5.9-4.1s4.8-1.5,7.6-1.5c2.8,0,5.3,0.5,7.6,1.5c2.3,1,4.2,2.4,5.9,4.1     c1.6,1.7,2.9,3.7,3.8,6s1.3,4.6,1.3,7.1s-0.4,4.9-1.3,7.1c-0.9,2.3-2.1,4.3-3.8,6c-1.6,1.7-3.6,3.1-5.9,4.1     S1143.7,244.7,1140.9,244.7z M1130.2,226.1c0,1.7,0.3,3.4,0.8,4.8c0.6,1.5,1.3,2.7,2.3,3.8s2.1,1.9,3.4,2.5s2.7,0.9,4.2,0.9     s2.9-0.3,4.2-0.9c1.3-0.6,2.4-1.5,3.4-2.6s1.7-2.4,2.3-3.9c0.6-1.5,0.8-3.1,0.8-4.8s-0.3-3.3-0.8-4.8c-0.6-1.5-1.3-2.8-2.3-3.9     c-1-1.1-2.1-2-3.4-2.6s-2.7-0.9-4.2-0.9s-2.9,0.3-4.2,1s-2.4,1.5-3.4,2.6s-1.7,2.4-2.3,3.9     C1130.5,222.8,1130.2,224.4,1130.2,226.1z"/>
			<path class="st15" d="M1177.3,244.7c-3.8,0-6.6-1.2-8.5-3.7s-2.9-6.1-2.9-11v-22h7.6v20.5c0,6.5,2.3,9.7,6.9,9.7     c2.2,0,4.2-0.7,6.1-2s3.4-3.3,4.5-5.8V208h7.6v27.1c0,0.9,0.1,1.5,0.4,1.9s0.8,0.6,1.6,0.6v6.5c-0.8,0.1-1.4,0.2-1.9,0.3     c-0.5,0-1,0.1-1.4,0.1c-1.4,0-2.5-0.4-3.5-1.1c-1-0.8-1.5-1.7-1.5-2.9l-0.1-3.6c-1.6,2.6-3.7,4.6-6.3,6     C1183.2,244,1180.4,244.7,1177.3,244.7z"/>
			<path class="st15" d="M1218.2,244l-13.8-36h7.8l10.3,29.6L1233,208h7.2l-13.8,36H1218.2z"/>
			<path class="st15" d="M1241.9,244v-8.8h6.3v8.8H1241.9z"/>
			<path class="st15" d="M1259,244v-29.3h-4.8v-5.9h4.8v-1.4c0-4.5,1-8,3.1-10.5c2.1-2.6,4.9-3.9,8.4-3.9c1.5,0,2.9,0.2,4.3,0.6     c1.4,0.4,2.8,0.9,4.1,1.6l-1.7,5.6c-0.7-0.4-1.5-0.8-2.4-1s-1.8-0.4-2.7-0.4c-1.8,0-3.2,0.7-4.1,2s-1.4,3.3-1.4,5.8v1.7h9.2v5.9     h-9.2V244H1259L1259,244z"/>
			<path class="st15" d="M1301.7,214.5c-2.9,0.1-5.5,0.8-7.8,2c-2.3,1.3-3.9,3.1-4.9,5.4v22h-7.6v-36h7v8.1c1.2-2.5,2.9-4.5,4.9-6     s4.1-2.3,6.4-2.4c0.5,0,0.8,0,1.1,0c0.3,0,0.6,0,0.8,0.1L1301.7,214.5L1301.7,214.5z"/>
		</g>
	</g>
	<g>
		<g>
			<path class="st15" d="M528,143.8h-13.4V86.5c0-11.9-1.9-20.7-5.7-26.4c-3.8-5.6-9.5-8.5-16.9-8.5c-3.9,0-7.7,0.7-11.1,2.2     c-3.5,1.4-6.7,3.5-9.7,6.1s-5.5,5.7-7.8,9.4c-2.2,3.6-3.9,7.6-5.1,11.9v62.6h-13.4V86.5c0-12.2-1.8-21.1-5.5-26.6     s-9.3-8.3-16.9-8.3c-7.8,0-14.6,2.7-20.7,8.1c-6,5.4-10.4,12.5-13,21.3v62.8h-13.4V41.2h12.2v23.2c4.2-7.9,9.7-14,16.5-18.4     s14.4-6.6,22.7-6.6c8.7,0,15.6,2.4,20.8,7.3c5.2,4.9,8.4,11.2,9.6,19.1c9.6-17.6,22.8-26.4,39.6-26.4c5.8,0,10.7,1.1,14.7,3.2     c4,2.1,7.2,5.1,9.7,9c2.4,3.9,4.2,8.5,5.3,14s1.7,11.5,1.7,18.2L528,143.8L528,143.8z"/>
			<path class="st15" d="M600.7,145.8c-7.5,0-14.3-1.4-20.6-4.2c-6.2-2.8-11.7-6.7-16.3-11.6c-4.6-4.9-8.2-10.6-10.7-17     c-2.6-6.4-3.8-13.3-3.8-20.7c0-7.2,1.3-14,3.8-20.4c2.6-6.4,6.1-11.9,10.6-16.7s9.9-8.6,16.3-11.4c6.3-2.8,13.1-4.2,20.5-4.2     c7.5,0,14.3,1.4,20.6,4.2c6.2,2.8,11.6,6.7,16.1,11.5c4.5,4.9,7.9,10.4,10.4,16.7c2.5,6.3,3.7,13,3.7,20.1c0,1.1,0,2.1,0,3.2     s-0.1,1.8-0.2,2.2h-87.9c0.4,5.5,1.7,10.6,3.8,15.3c2.2,4.7,5,8.7,8.4,12.1c3.4,3.4,7.3,6.1,11.7,8s9.1,2.9,14.1,2.9     c3.3,0,6.6-0.5,9.8-1.4c3.3-0.9,6.3-2.2,9.1-3.7c2.8-1.6,5.3-3.5,7.5-5.8s3.9-4.8,5.1-7.6l11.6,3.2c-1.6,3.8-3.8,7.3-6.7,10.3     c-2.9,3.1-6.2,5.8-10,8.1s-8,4.1-12.6,5.3C610.5,145.1,605.7,145.8,600.7,145.8z M638.5,87.1c-0.4-5.5-1.7-10.5-3.8-15.1     c-2.2-4.5-4.9-8.4-8.3-11.7c-3.3-3.3-7.2-5.8-11.6-7.7c-4.4-1.8-9.1-2.8-14.1-2.8s-9.7,0.9-14.2,2.8c-4.5,1.8-8.4,4.4-11.7,7.7     s-6,7.2-8.1,11.8c-2,4.6-3.3,9.6-3.6,15H638.5z"/>
			<path class="st15" d="M706.1,145.8c-8,0-15.8-1.3-23.4-3.9c-7.6-2.6-14.2-6.4-19.7-11.4l6.1-9.1c5.8,4.7,11.7,8.3,17.6,10.6     c6,2.4,12.4,3.5,19.2,3.5c8.3,0,14.9-1.7,19.8-5c4.9-3.4,7.4-8.1,7.4-14.3c0-2.9-0.7-5.3-2-7.2c-1.3-1.9-3.3-3.6-5.8-5     c-2.6-1.4-5.8-2.7-9.7-3.8c-3.9-1.1-8.4-2.3-13.5-3.4c-5.9-1.4-11-2.9-15.4-4.3c-4.3-1.4-7.9-3.1-10.7-4.9s-4.9-4.1-6.3-6.8     c-1.4-2.7-2.1-6.1-2.1-10.1c0-5.1,1-9.7,3.1-13.6c2-3.9,4.8-7.2,8.3-9.8s7.5-4.5,12.2-5.8s9.6-2,14.9-2c7.9,0,15,1.3,21.5,3.8     c6.4,2.6,11.6,5.9,15.6,10.1l-6.5,7.9c-3.8-3.9-8.4-6.9-13.9-8.9s-11.1-3-17-3c-3.5,0-6.8,0.4-9.8,1.1c-3,0.7-5.7,1.9-8,3.4     c-2.3,1.6-4.1,3.6-5.4,6c-1.3,2.4-2,5.3-2,8.6c0,2.8,0.5,5,1.4,6.7s2.4,3.2,4.5,4.4c2.1,1.3,4.8,2.4,8,3.3c3.2,1,7.1,2,11.7,3.1     c6.6,1.6,12.3,3.2,17.3,4.7c5,1.6,9.2,3.4,12.5,5.5s5.9,4.7,7.6,7.7c1.7,3,2.6,6.7,2.6,11c0,9.5-3.6,16.9-10.8,22.5     C728,143,718.3,145.8,706.1,145.8z"/>
			<path class="st16" d="M860.3,145.8c-7.1,0-13.7-1.5-19.7-4.4c-6-3-11.2-6.9-15.6-11.7c-4.3-4.9-7.7-10.5-10.1-16.8     c-2.4-6.4-3.6-13-3.6-20c0-7.2,1.2-14.1,3.5-20.6c2.4-6.5,5.6-12.2,9.8-17c4.1-4.9,9.1-8.7,14.8-11.5s12-4.2,18.8-4.2     c8.7,0,16.3,2.3,23,6.8s11.9,10,15.8,16.4V0h13.4v126.5c0,3.7,1.6,5.5,4.7,5.5v11.8c-2,0.4-3.5,0.6-4.7,0.6c-3.2,0-5.9-1-8.3-3.1     c-2.4-2-3.5-4.5-3.5-7.4v-10c-4.1,6.7-9.6,12-16.5,16C875,143.8,867.8,145.8,860.3,145.8z M863.3,133.9c3.3,0,6.8-0.7,10.5-2     s7.3-3.1,10.5-5.4c3.3-2.3,6.1-5,8.4-8.1c2.3-3.1,3.7-6.4,4.2-9.9V76.8c-1.3-3.5-3.2-6.9-5.7-9.9c-2.5-3.1-5.4-5.8-8.6-8.2     c-3.2-2.4-6.7-4.2-10.3-5.5c-3.7-1.3-7.3-2-10.8-2c-5.5,0-10.5,1.2-15,3.5c-4.5,2.4-8.3,5.5-11.5,9.4s-5.7,8.3-7.4,13.3     S825,87.5,825,92.8c0,5.5,1,10.8,3,15.8s4.7,9.4,8.1,13.1c3.4,3.7,7.5,6.7,12.1,9C852.9,132.8,857.9,133.9,863.3,133.9z"/>
			<path class="st16" d="M991.9,53c-9.1,0.3-16.9,2.8-23.6,7.5S956.8,71.7,954.1,80v63.8h-13.4V41.2h12.6v24.6     c3.8-7.9,8.9-14,15.4-18.5c6.4-4.5,13.3-6.7,20.7-6.7c1,0,1.9,0.1,2.6,0.2L991.9,53L991.9,53z"/>
			<path class="st16" d="M1048.4,145.8c-7.5,0-14.3-1.4-20.5-4.2c-6.2-2.8-11.5-6.7-16.1-11.5c-4.5-4.9-8-10.5-10.5-16.9     s-3.7-13.2-3.7-20.3c0-7.2,1.3-14.1,3.8-20.5c2.6-6.4,6.1-12.1,10.6-16.9c4.5-4.9,9.9-8.7,16.1-11.6c6.2-2.9,12.9-4.3,20.3-4.3     s14.1,1.4,20.4,4.3c6.2,2.9,11.6,6.8,16.2,11.6c4.5,4.9,8.1,10.5,10.6,16.9c2.6,6.4,3.8,13.3,3.8,20.5c0,7.1-1.2,13.9-3.7,20.3     s-6,12.1-10.5,16.9c-4.5,4.9-9.9,8.7-16.2,11.5C1062.8,144.4,1055.9,145.8,1048.4,145.8z M1011.2,93c0,5.8,1,11.1,3,16.1     c2,4.9,4.6,9.3,8,13c3.3,3.7,7.3,6.7,11.8,8.8c4.5,2.1,9.4,3.2,14.5,3.2s9.9-1.1,14.5-3.3s8.5-5.1,11.9-8.9     c3.4-3.7,6.1-8.1,8.1-13.1s3-10.4,3-16.2c0-5.6-1-11-3-16.1s-4.7-9.5-8.1-13.2s-7.4-6.7-11.9-8.9s-9.4-3.3-14.5-3.3     s-9.9,1.1-14.4,3.3s-8.4,5.2-11.8,9c-3.4,3.8-6.1,8.2-8.1,13.3S1011.2,87.2,1011.2,93z"/>
			<path class="st16" d="M1121.9,19.7V0h13.4v19.7H1121.9z M1121.9,143.8V41.2h13.4v102.6H1121.9z"/>
			<path class="st16" d="M1214.1,138.9c-0.8,0.4-1.9,0.9-3.4,1.6c-1.5,0.7-3.3,1.3-5.2,2c-2,0.7-4.2,1.3-6.7,1.8s-5.1,0.8-7.9,0.8     c-2.9,0-5.6-0.4-8.3-1.2c-2.6-0.8-4.9-2-6.9-3.6s-3.5-3.7-4.7-6.2s-1.8-5.4-1.8-8.7V51.8H1155V41.2h14.2V6.5h13.4v34.7h23.6v10.6     h-23.6v69.7c0.3,3.8,1.6,6.6,4,8.4c2.4,1.8,5.2,2.7,8.4,2.7c3.8,0,7.2-0.6,10-1.9c2.9-1.2,4.7-2.1,5.5-2.7L1214.1,138.9z"/>
			<path class="st16" d="M1264.9,145.8c-8,0-15.8-1.3-23.4-3.9c-7.6-2.6-14.2-6.4-19.7-11.4l6.1-9.1c5.8,4.7,11.7,8.3,17.6,10.6     c6,2.4,12.4,3.5,19.2,3.5c8.3,0,14.9-1.7,19.8-5c4.9-3.4,7.4-8.1,7.4-14.3c0-2.9-0.7-5.3-2-7.2c-1.3-1.9-3.3-3.6-5.8-5     c-2.6-1.4-5.8-2.7-9.7-3.8c-3.9-1.1-8.4-2.3-13.5-3.4c-5.9-1.4-11-2.9-15.4-4.3c-4.3-1.4-7.9-3.1-10.7-4.9     c-2.8-1.8-4.9-4.1-6.3-6.8c-1.4-2.7-2.1-6.1-2.1-10.1c0-5.1,1-9.7,3.1-13.6c2-3.9,4.8-7.2,8.3-9.8s7.6-4.5,12.2-5.8     c4.7-1.3,9.6-2,14.9-2c7.9,0,15,1.3,21.5,3.8c6.4,2.6,11.6,5.9,15.6,10.1l-6.5,7.9c-3.8-3.9-8.4-6.9-13.9-8.9s-11.1-3-17-3     c-3.5,0-6.8,0.4-9.8,1.1c-3,0.7-5.7,1.9-8,3.4c-2.3,1.6-4.1,3.6-5.4,6s-2,5.3-2,8.6c0,2.8,0.5,5,1.4,6.7s2.4,3.2,4.5,4.4     c2.1,1.3,4.8,2.4,8,3.3c3.2,1,7.1,2,11.7,3.1c6.6,1.6,12.3,3.2,17.3,4.7c5,1.6,9.2,3.4,12.5,5.5s5.9,4.7,7.6,7.7s2.6,6.7,2.6,11     c0,9.5-3.6,16.9-10.8,22.5C1286.8,143,1277.1,145.8,1264.9,145.8z"/>
			<path class="st16" d="M409.4,312.4c-8,0-15.8-1.3-23.4-3.9s-14.2-6.4-19.7-11.4l6.1-9.1c5.8,4.7,11.7,8.3,17.6,10.6     c6,2.4,12.4,3.5,19.2,3.5c8.3,0,14.9-1.7,19.8-5s7.4-8.1,7.4-14.3c0-2.9-0.7-5.3-2-7.2c-1.3-1.9-3.3-3.6-5.8-5     c-2.6-1.4-5.8-2.7-9.7-3.8c-3.9-1.1-8.4-2.3-13.5-3.4c-5.9-1.4-11-2.9-15.4-4.3c-4.3-1.4-7.9-3.1-10.7-4.9     c-2.8-1.8-4.9-4.1-6.3-6.8s-2.1-6.1-2.1-10.1c0-5.1,1-9.7,3.1-13.6c2-3.9,4.8-7.2,8.3-9.8s7.5-4.5,12.2-5.8s9.6-2,14.9-2     c7.9,0,15,1.3,21.5,3.8c6.4,2.6,11.6,5.9,15.6,10.1l-6.5,7.9c-3.8-3.9-8.4-6.9-13.9-8.9s-11.1-3-17-3c-3.5,0-6.8,0.4-9.8,1.1     c-3,0.7-5.7,1.9-8,3.4c-2.3,1.6-4.1,3.6-5.4,6s-2,5.3-2,8.6c0,2.8,0.5,5,1.4,6.7s2.4,3.2,4.5,4.4c2.1,1.3,4.8,2.4,8,3.3     c3.2,1,7.1,2,11.7,3.1c6.6,1.6,12.3,3.2,17.3,4.7c5,1.6,9.2,3.4,12.5,5.5s5.9,4.7,7.6,7.7s2.6,6.7,2.6,11     c0,9.5-3.6,16.9-10.8,22.5C431.4,309.6,421.6,312.4,409.4,312.4z"/>
			<path class="st16" d="M515,312.4c-7.5,0-14.3-1.4-20.5-4.2c-6.2-2.8-11.5-6.7-16.1-11.5c-4.5-4.9-8-10.5-10.5-16.9     s-3.7-13.2-3.7-20.3c0-7.2,1.3-14.1,3.8-20.5c2.6-6.4,6.1-12.1,10.6-16.9c4.5-4.9,9.9-8.7,16.1-11.6c6.2-2.9,12.9-4.3,20.3-4.3     s14.1,1.4,20.4,4.3c6.2,2.9,11.6,6.8,16.2,11.6c4.5,4.9,8.1,10.5,10.6,16.9c2.6,6.4,3.8,13.3,3.8,20.5c0,7.1-1.3,13.9-3.7,20.3     c-2.5,6.4-6,12.1-10.5,16.9c-4.5,4.9-9.9,8.7-16.2,11.5C529.4,311,522.5,312.4,515,312.4z M477.8,259.6c0,5.8,1,11.1,3,16.1     s4.6,9.3,8,13c3.3,3.7,7.3,6.7,11.8,8.8c4.5,2.1,9.4,3.2,14.5,3.2c5.1,0,9.9-1.1,14.5-3.3c4.5-2.2,8.5-5.1,11.9-8.9     c3.4-3.7,6.1-8.1,8.1-13.1s3-10.4,3-16.2c0-5.6-1-11-3-16.1s-4.7-9.5-8.1-13.2c-3.4-3.7-7.4-6.7-11.9-8.9s-9.4-3.3-14.5-3.3     s-9.9,1.1-14.4,3.3s-8.4,5.2-11.8,9s-6.1,8.2-8.1,13.3C478.8,248.4,477.8,253.8,477.8,259.6z"/>
			<path class="st16" d="M581.4,258.8c0-7.2,1.2-14.1,3.7-20.5s6-12,10.5-16.8s9.9-8.6,16.3-11.3c6.3-2.8,13.3-4.1,20.9-4.1     c9.7,0,18.2,2.2,25.4,6.6c7.2,4.4,12.7,10.3,16.3,17.8l-13,4.1c-2.9-5.3-6.9-9.4-12.1-12.3c-5.2-3-10.9-4.4-17.2-4.4     c-5.3,0-10.1,1.1-14.7,3.2c-4.5,2.1-8.5,5-11.8,8.6s-6,7.9-7.9,12.9s-2.9,10.4-2.9,16.3c0,5.8,1,11.2,3,16.3     c2,5.1,4.7,9.6,8.1,13.3c3.4,3.7,7.4,6.7,11.9,8.9c4.5,2.2,9.4,3.3,14.5,3.3c3.3,0,6.5-0.5,9.8-1.4c3.2-0.9,6.2-2.2,9-3.8     c2.8-1.6,5.1-3.5,7.1-5.6s3.3-4.3,4.1-6.7l13.2,3.9c-1.4,3.7-3.5,7.1-6.3,10.1c-2.8,3.1-6,5.8-9.8,8.1c-3.7,2.3-7.9,4.1-12.4,5.3     c-4.5,1.2-9.2,1.9-14.1,1.9c-7.5,0-14.4-1.4-20.7-4.2c-6.3-2.8-11.8-6.7-16.3-11.6c-4.6-4.9-8.2-10.6-10.7-17     C582.7,273.1,581.4,266.2,581.4,258.8z"/>
			<path class="st16" d="M696.6,186.3v-19.7H710v19.7H696.6z M696.6,310.4V207.8H710v102.6H696.6z"/>
			<path class="st16" d="M765.4,312.4c-4.9,0-9.4-0.8-13.5-2.5s-7.8-3.9-10.8-6.8c-3.1-2.9-5.5-6.3-7.2-10.1     c-1.7-3.9-2.6-8-2.6-12.5s1-8.6,3.2-12.4c2.1-3.8,5.1-7.1,8.9-9.8c3.8-2.8,8.3-4.9,13.6-6.4s11-2.3,17.3-2.3     c5.3,0,10.6,0.5,16,1.4s10.2,2.2,14.4,3.9v-9.3c0-9.1-2.6-16.3-7.7-21.6c-5.1-5.3-12.2-8-21.3-8c-5.3,0-10.6,1.1-16.2,3.2     c-5.5,2.1-11.1,5.1-16.7,9.1l-4.7-8.9c13.3-8.9,26.1-13.4,38.6-13.4c12.9,0,23,3.6,30.3,10.8c7.4,7.2,11,17.2,11,29.9V293     c0,3.7,1.6,5.5,4.9,5.5v11.8c-2.2,0.4-3.9,0.6-5.1,0.6c-3.4,0-6.1-0.9-8-2.6s-2.9-4.1-3.1-7.1l-0.4-8.1     c-4.7,6.2-10.7,10.9-17.8,14.2C781.4,310.7,773.6,312.4,765.4,312.4z M768.5,302.1c7,0,13.4-1.3,19.2-3.9s10.3-6.1,13.3-10.4     c1.2-1.2,2.1-2.5,2.7-3.8s0.9-2.7,0.9-3.8v-16.7c-4.5-1.7-9.1-3-13.9-3.9c-4.8-0.9-9.7-1.4-14.7-1.4c-9.5,0-17.1,2-23,5.9     s-8.9,9.1-8.9,15.6c0,3.2,0.6,6.1,1.9,8.9c1.2,2.8,3,5.2,5.1,7.2c2.2,2,4.8,3.6,7.8,4.8C761.9,301.6,765.1,302.1,768.5,302.1z"/>
			<path class="st16" d="M879,312.4c-11.2,0-19.5-3.7-24.9-11.1c-5.5-7.4-8.2-18.5-8.2-33.2v-60.3h13.4v57.9     c0,23.2,7.9,34.9,23.8,34.9c3.9,0,7.8-0.7,11.6-2s7.3-3.2,10.5-5.7s6.1-5.4,8.7-8.9c2.6-3.4,4.6-7.3,6.2-11.6v-64.6h13.4v85.3     c0,3.7,1.6,5.5,4.7,5.5v11.8c-1.6,0.3-2.9,0.4-3.8,0.4s-1.7,0-2.1,0c-3.2-0.1-5.7-1.2-7.7-3.3c-2-2.1-3-4.9-3-8.5v-11.8     c-4.5,8-10.5,14.2-18.2,18.6C895.9,310.2,887.7,312.4,879,312.4z"/>
			<path class="st16" d="M966.5,207.8l30.7,40.2l1.6,3l1.6-3l30.7-40.2h14.4l-39.2,51.6l39.2,51h-14.4l-30.7-40l-1.6-2.8l-1.6,2.8     l-30.7,40h-14.4l39.2-51l-39.2-51.6L966.5,207.8L966.5,207.8z"/>
		</g>
	</g>
</g>
<ellipse class="st17" cx="32.6" cy="92.4" rx="24.5" ry="23.7"/>
<g>
	<ellipse class="st18" cx="32.6" cy="324.6" rx="24.5" ry="23.7"/>
</g>
<ellipse class="st19" cx="32.6" cy="266.5" rx="24.5" ry="23.7"/>
<ellipse class="st20" cx="32.6" cy="208.5" rx="24.5" ry="23.7"/>
<g>
	<ellipse class="st21" cx="32.6" cy="150.5" rx="24.5" ry="23.7"/>
</g>
<g>
	<ellipse class="st22" cx="32.6" cy="34.4" rx="24.5" ry="23.7"/>
</g>
</svg>