<?xml version="1.0" encoding="UTF-8" standalone="no"?>
<svg
   xmlns:dc="http://purl.org/dc/elements/1.1/"
   xmlns:cc="http://creativecommons.org/ns#"
   xmlns:rdf="http://www.w3.org/1999/02/22-rdf-syntax-ns#"
   xmlns:svg="http://www.w3.org/2000/svg"
   xmlns="http://www.w3.org/2000/svg"
   xmlns:sodipodi="http://sodipodi.sourceforge.net/DTD/sodipodi-0.dtd"
   xmlns:inkscape="http://www.inkscape.org/namespaces/inkscape"
   version="1.1"
   id="Layer_1"
   x="0px"
   y="0px"
   viewBox="0 0 79.999999 80.000003"
   xml:space="preserve"
   sodipodi:docname="logo-mes-droits-sociaux-gouv-fr_adj.svg"
   width="80"
   height="80"
   inkscape:version="1.0.2 (1.0.2+r75+1)"><metadata
   id="metadata269"><rdf:RDF><cc:Work
       rdf:about=""><dc:format>image/svg+xml</dc:format><dc:type
         rdf:resource="http://purl.org/dc/dcmitype/StillImage" /><dc:title></dc:title></cc:Work></rdf:RDF></metadata><defs
   id="defs267" /><sodipodi:namedview
   pagecolor="#ffffff"
   bordercolor="#666666"
   borderopacity="1"
   objecttolerance="10"
   gridtolerance="10"
   guidetolerance="10"
   inkscape:pageopacity="0"
   inkscape:pageshadow="2"
   inkscape:window-width="2560"
   inkscape:window-height="1385"
   id="namedview265"
   showgrid="false"
   inkscape:zoom="1.578798"
   inkscape:cx="419.11726"
   inkscape:cy="202.84665"
   inkscape:window-x="0"
   inkscape:window-y="27"
   inkscape:window-maximized="1"
   inkscape:current-layer="Layer_1" />
<style
   type="text/css"
   id="style2">
	.st0{fill:url(#SVGID_1_);}
	.st1{opacity:0.85;fill:#19355C;enable-background:new    ;}
	.st2{fill:url(#SVGID_2_);}
	.st3{fill:url(#SVGID_3_);}
	.st4{fill:url(#SVGID_4_);}
	.st5{fill:url(#SVGID_5_);}
	.st6{fill:#B7C0CC;}
	.st7{fill:url(#SVGID_6_);}
	.st8{fill:url(#SVGID_7_);}
	.st9{fill:url(#SVGID_8_);}
	.st10{fill:url(#SVGID_9_);}
	.st11{fill:url(#SVGID_10_);}
	.st12{fill:url(#SVGID_11_);}
	.st13{fill:#3B5374;}
	.st14{fill:url(#SVGID_12_);}
	.st15{fill:#777777;}
	.st16{fill:#19355C;}
	.st17{fill:#6EB6FF;}
	.st18{fill:#AFFF59;}
	.st19{fill:#F695FF;}
	.st20{fill:#3EFEE5;}
	.st21{fill:#FFBC46;}
	.st22{fill:#FE606A;}
</style>








<g
   id="g1230"
   transform="scale(0.21914447)"
   style="stroke-width:4.5632"><g
     id="g13"
     style="stroke-width:4.5632">
	
		<linearGradient
   id="SVGID_1_"
   gradientUnits="userSpaceOnUse"
   x1="-2647.8091"
   y1="735.0155"
   x2="-2647.8091"
   y2="735.0155"
   gradientTransform="matrix(-5.0309277,-0.13872127,-0.13142015,4.7740195,-12983.403,-2620.4936)">
		<stop
   offset="0"
   style="stop-color:#0071BC;stop-opacity:0.2"
   id="stop4" />
		<stop
   offset="0.5468"
   style="stop-color:#0071BC;stop-opacity:0.8"
   id="stop6" />
		<stop
   offset="0.9944"
   style="stop-color:#0071BC"
   id="stop8" />
	</linearGradient>
	<path
   class="st0"
   d="M 52.8,275.2 Z"
   id="path11"
   style="fill:url(#SVGID_1_);stroke-width:4.5632" />
</g><g
     id="g186"
     style="stroke-width:4.5632">
	<path
   class="st1"
   d="m 6.7,227.1 -0.3,-1.2 c 0.1,0.4 0.2,0.8 0.3,1.2 z"
   id="path15"
   style="stroke-width:4.5632" />
	<path
   class="st1"
   d="m 6,224.6 -2.6,-11 c 0.7,3.7 1.6,7.4 2.6,11 z"
   id="path17"
   style="stroke-width:4.5632" />
	<path
   class="st1"
   d="m 3.3,213.3 -1.6,-9.4 c 0.5,3.1 1,6.3 1.6,9.4 z"
   id="path19"
   style="stroke-width:4.5632" />
	<path
   class="st1"
   d="M 1.6,203 0.5,192.6 c 0.3,3.5 0.6,7 1.1,10.4 z"
   id="path21"
   style="stroke-width:4.5632" />
	<path
   class="st1"
   d="m 12.4,243.7 -3.3,-9 c 1,3 2.1,6 3.3,9 z"
   id="path23"
   style="stroke-width:4.5632" />
	<path
   class="st1"
   d="m 20.9,261.7 -0.3,-0.5 c 0.1,0.2 0.2,0.4 0.3,0.5 z"
   id="path25"
   style="stroke-width:4.5632" />
	<path
   class="st1"
   d="m 13.8,247.1 -0.9,-2 c 0.4,0.7 0.6,1.3 0.9,2 z"
   id="path27"
   style="stroke-width:4.5632" />
	<path
   class="st1"
   d="m 0.5,192.5 -0.4,-8.8 c 0,3 0.2,5.9 0.4,8.8 z"
   id="path29"
   style="stroke-width:4.5632" />
	
		<linearGradient
   id="SVGID_2_"
   gradientUnits="userSpaceOnUse"
   x1="-779.59363"
   y1="3130.5864"
   x2="-95.752197"
   y2="3130.5864"
   gradientTransform="matrix(7.8386644,0.17522687,-0.07666175,3.426963,6343.0999,-9397.2189)">
		<stop
   offset="0"
   style="stop-color:#CCE0F4"
   id="stop31" />
		<stop
   offset="0.1105"
   style="stop-color:#C3D7EC"
   id="stop33" />
		<stop
   offset="0.2944"
   style="stop-color:#A9BFD6"
   id="stop35" />
		<stop
   offset="0.529"
   style="stop-color:#8097B3"
   id="stop37" />
		<stop
   offset="0.8021"
   style="stop-color:#476183"
   id="stop39" />
		<stop
   offset="1"
   style="stop-color:#19355C"
   id="stop41" />
	</linearGradient>
	<path
   class="st2"
   d="m 21.6,262.9 v 0 c -0.2,-0.4 -0.4,-0.8 -0.6,-1.2 z"
   id="path44"
   style="fill:url(#SVGID_2_);stroke-width:4.5632" />
	
		<linearGradient
   id="SVGID_3_"
   gradientUnits="userSpaceOnUse"
   x1="-779.59363"
   y1="3090.5049"
   x2="-95.752197"
   y2="3090.5049"
   gradientTransform="matrix(7.8386644,0.17522687,-0.07666175,3.426963,6343.0999,-9397.2189)">
		<stop
   offset="0"
   style="stop-color:#DEE4EB"
   id="stop46" />
		<stop
   offset="1"
   style="stop-color:#B7C0CC"
   id="stop48" />
	</linearGradient>
	<path
   class="st3"
   d="M 874,306.5 C 759.5,306 735.6,300.7 579.3,239.3 c -91.1,-35.8 -169.3,-62.2 -237,-80 0.8,6.6 1.2,13.3 1.2,20.1 0,13.4 -1.5,26.4 -4.4,38.9 47.8,10.5 103.4,26.2 169,48.1 160.2,53.5 243.9,65.7 358.4,63.8 137.5,-2.3 238.3,-21.5 303.8,-71.5 -61.2,45.9 -157.7,48.4 -296.3,47.8 z"
   id="path51"
   style="fill:url(#SVGID_3_);stroke-width:4.5632" />
	
		<linearGradient
   id="SVGID_4_"
   gradientUnits="userSpaceOnUse"
   x1="-779.59363"
   y1="3107.0193"
   x2="-95.752197"
   y2="3107.0193"
   gradientTransform="matrix(7.8386644,0.17522687,-0.07666175,3.426963,6343.0999,-9397.2189)">
		<stop
   offset="0"
   style="stop-color:#CCE0F4"
   id="stop53" />
		<stop
   offset="0.1105"
   style="stop-color:#C3D7EC"
   id="stop55" />
		<stop
   offset="0.2944"
   style="stop-color:#A9BFD6"
   id="stop57" />
		<stop
   offset="0.529"
   style="stop-color:#8097B3"
   id="stop59" />
		<stop
   offset="0.8021"
   style="stop-color:#476183"
   id="stop61" />
		<stop
   offset="1"
   style="stop-color:#19355C"
   id="stop63" />
	</linearGradient>
	<path
   class="st4"
   d="m 12.5,244 0.5,1.1 c -0.2,-0.5 -0.4,-0.9 -0.6,-1.4 z"
   id="path66"
   style="fill:url(#SVGID_4_);stroke-width:4.5632" />
	
		<linearGradient
   id="SVGID_5_"
   gradientUnits="userSpaceOnUse"
   x1="-779.59363"
   y1="3119.8618"
   x2="-95.752197"
   y2="3119.8618"
   gradientTransform="matrix(7.8386644,0.17522687,-0.07666175,3.426963,6343.0999,-9397.2189)">
		<stop
   offset="0"
   style="stop-color:#CCE0F4"
   id="stop68" />
		<stop
   offset="0.1105"
   style="stop-color:#C3D7EC"
   id="stop70" />
		<stop
   offset="0.2944"
   style="stop-color:#A9BFD6"
   id="stop72" />
		<stop
   offset="0.529"
   style="stop-color:#8097B3"
   id="stop74" />
		<stop
   offset="0.8021"
   style="stop-color:#476183"
   id="stop76" />
		<stop
   offset="1"
   style="stop-color:#19355C"
   id="stop78" />
	</linearGradient>
	<path
   class="st5"
   d="m 16.8,254.2 3.8,7 c -2.5,-4.6 -4.8,-9.3 -6.8,-14.1 z"
   id="path81"
   style="fill:url(#SVGID_5_);stroke-width:4.5632" />
	<path
   class="st6"
   d="m 1170.1,258.8 c 1.1,-0.8 2.2,-1.7 3.3,-2.5 -1.1,0.8 -2.2,1.6 -3.3,2.5 z"
   id="path83"
   style="stroke-width:4.5632" />
	
		<linearGradient
   id="SVGID_6_"
   gradientUnits="userSpaceOnUse"
   x1="-779.59363"
   y1="3038.4126"
   x2="-774.96552"
   y2="3038.4126"
   gradientTransform="matrix(7.8386644,0.17522687,-0.07666175,3.426963,6343.0999,-9397.2189)">
		<stop
   offset="0"
   style="stop-color:#CCE0F4"
   id="stop85" />
		<stop
   offset="0.1105"
   style="stop-color:#C3D7EC"
   id="stop87" />
		<stop
   offset="0.2944"
   style="stop-color:#A9BFD6"
   id="stop89" />
		<stop
   offset="0.529"
   style="stop-color:#8097B3"
   id="stop91" />
		<stop
   offset="0.8021"
   style="stop-color:#476183"
   id="stop93" />
		<stop
   offset="1"
   style="stop-color:#19355C"
   id="stop95" />
	</linearGradient>
	<path
   class="st7"
   d="m 0.5,192.6 v 0 c 0,0 0,-0.1 0,0 z"
   id="path98"
   style="fill:url(#SVGID_6_);stroke-width:4.5632" />
	
		<linearGradient
   id="SVGID_7_"
   gradientUnits="userSpaceOnUse"
   x1="-779.59363"
   y1="3052.7119"
   x2="-220.39931"
   y2="3052.7119"
   gradientTransform="matrix(7.8386644,0.17522687,-0.07666175,3.426963,6343.0999,-9397.2189)">
		<stop
   offset="0"
   style="stop-color:#CCE0F4"
   id="stop100" />
		<stop
   offset="0.1105"
   style="stop-color:#C3D7EC"
   id="stop102" />
		<stop
   offset="0.2944"
   style="stop-color:#A9BFD6"
   id="stop104" />
		<stop
   offset="0.529"
   style="stop-color:#8097B3"
   id="stop106" />
		<stop
   offset="0.8021"
   style="stop-color:#476183"
   id="stop108" />
		<stop
   offset="1"
   style="stop-color:#19355C"
   id="stop110" />
	</linearGradient>
	<path
   class="st8"
   d="m 1.7,203.4 0.1,0.4 c 0,-0.3 -0.1,-0.6 -0.1,-0.9 z"
   id="path113"
   style="fill:url(#SVGID_7_);stroke-width:4.5632" />
	
		<linearGradient
   id="SVGID_8_"
   gradientUnits="userSpaceOnUse"
   x1="-779.59363"
   y1="3026.6108"
   x2="-758.96112"
   y2="3026.6108"
   gradientTransform="matrix(7.8386644,0.17522687,-0.07666175,3.426963,6343.0999,-9397.2189)">
		<stop
   offset="0"
   style="stop-color:#CCE0F4"
   id="stop115" />
		<stop
   offset="0.1105"
   style="stop-color:#C3D7EC"
   id="stop117" />
		<stop
   offset="0.2944"
   style="stop-color:#A9BFD6"
   id="stop119" />
		<stop
   offset="0.529"
   style="stop-color:#8097B3"
   id="stop121" />
		<stop
   offset="0.8021"
   style="stop-color:#476183"
   id="stop123" />
		<stop
   offset="1"
   style="stop-color:#19355C"
   id="stop125" />
	</linearGradient>
	<path
   class="st9"
   d="m 0,183.7 v 0 c 0.1,0 0.1,0 0,0 z"
   id="path128"
   style="fill:url(#SVGID_8_);stroke-width:4.5632" />
	
		<linearGradient
   id="SVGID_9_"
   gradientUnits="userSpaceOnUse"
   x1="-779.59363"
   y1="3066.1064"
   x2="-463.5864"
   y2="3066.1064"
   gradientTransform="matrix(7.8386644,0.17522687,-0.07666175,3.426963,6343.0999,-9397.2189)">
		<stop
   offset="0"
   style="stop-color:#CCE0F4"
   id="stop130" />
		<stop
   offset="0.1105"
   style="stop-color:#C3D7EC"
   id="stop132" />
		<stop
   offset="0.2944"
   style="stop-color:#A9BFD6"
   id="stop134" />
		<stop
   offset="0.529"
   style="stop-color:#8097B3"
   id="stop136" />
		<stop
   offset="0.8021"
   style="stop-color:#476183"
   id="stop138" />
		<stop
   offset="1"
   style="stop-color:#19355C"
   id="stop140" />
	</linearGradient>
	<path
   class="st10"
   d="m 3.4,213.5 v 0.1 c 0,-0.1 0,-0.2 -0.1,-0.3 z"
   id="path143"
   style="fill:url(#SVGID_9_);stroke-width:4.5632" />
	
		<linearGradient
   id="SVGID_10_"
   gradientUnits="userSpaceOnUse"
   x1="-779.59363"
   y1="3089.198"
   x2="-95.752197"
   y2="3089.198"
   gradientTransform="matrix(7.8386644,0.17522687,-0.07666175,3.426963,6343.0999,-9397.2189)">
		<stop
   offset="0"
   style="stop-color:#CCE0F4"
   id="stop145" />
		<stop
   offset="0.1105"
   style="stop-color:#C3D7EC"
   id="stop147" />
		<stop
   offset="0.2944"
   style="stop-color:#A9BFD6"
   id="stop149" />
		<stop
   offset="0.529"
   style="stop-color:#8097B3"
   id="stop151" />
		<stop
   offset="0.8021"
   style="stop-color:#476183"
   id="stop153" />
		<stop
   offset="1"
   style="stop-color:#19355C"
   id="stop155" />
	</linearGradient>
	<path
   class="st11"
   d="m 8.1,232.2 0.9,2.5 c -0.9,-2.5 -1.6,-5 -2.4,-7.6 z"
   id="path158"
   style="fill:url(#SVGID_10_);stroke-width:4.5632" />
	
		<linearGradient
   id="SVGID_11_"
   gradientUnits="userSpaceOnUse"
   x1="-779.59363"
   y1="3081.7913"
   x2="-95.752197"
   y2="3081.7913"
   gradientTransform="matrix(7.8386644,0.17522687,-0.07666175,3.426963,6343.0999,-9397.2189)">
		<stop
   offset="0"
   style="stop-color:#CCE0F4"
   id="stop160" />
		<stop
   offset="0.1105"
   style="stop-color:#C3D7EC"
   id="stop162" />
		<stop
   offset="0.2944"
   style="stop-color:#A9BFD6"
   id="stop164" />
		<stop
   offset="0.529"
   style="stop-color:#8097B3"
   id="stop166" />
		<stop
   offset="0.8021"
   style="stop-color:#476183"
   id="stop168" />
		<stop
   offset="1"
   style="stop-color:#19355C"
   id="stop170" />
	</linearGradient>
	<path
   class="st12"
   d="m 6.1,225 0.3,0.9 c -0.1,-0.4 -0.2,-0.8 -0.3,-1.2 z"
   id="path173"
   style="fill:url(#SVGID_11_);stroke-width:4.5632" />
	<path
   class="st13"
   d="M 342.4,159.4 C 332.5,74 259.9,7.7 171.8,7.7 76.9,7.7 0,84.6 0,179.5 c 0,1.4 0,2.8 0.1,4.1 v 0 0.1 l 0.4,8.8 v 0.1 L 1.6,203 c 0,0.3 0.1,0.6 0.1,0.9 l 1.6,9.4 c 0,0.1 0,0.2 0.1,0.3 l 2.6,11 c 0.1,0.4 0.2,0.8 0.3,1.2 l 0.3,1.2 c 0.7,2.6 1.5,5.1 2.4,7.6 l 3.3,9 c 0.2,0.5 0.4,0.9 0.6,1.4 l 0.9,2 c 2.1,4.8 4.3,9.5 6.8,14.1 l 0.3,0.5 c 0.2,0.4 0.4,0.8 0.7,1.2 v 0 c 29.3,52.7 85.6,88.4 150.2,88.4 81.5,0 149.7,-56.7 167.4,-132.9 2.9,-12.5 4.4,-25.5 4.4,-38.9 0,-6.7 -0.4,-13.4 -1.2,-20 z"
   id="path175"
   style="stroke-width:4.5632" />
	
		<linearGradient
   id="SVGID_12_"
   gradientUnits="userSpaceOnUse"
   x1="-779.60663"
   y1="3041.7168"
   x2="-95.765198"
   y2="3041.7168"
   gradientTransform="matrix(7.8386644,0.17522687,-0.07666175,3.426963,6343.0999,-9397.2189)">
		<stop
   offset="0"
   style="stop-color:#6A809D"
   id="stop177" />
		<stop
   offset="0.4541"
   style="stop-color:#617795"
   id="stop179" />
		<stop
   offset="1"
   style="stop-color:#4F6686"
   id="stop181" />
	</linearGradient>
	<path
   class="st14"
   d="M 342.4,159.5 C 177.1,116 74.7,124.4 0.9,174.2 L 0,183.7 v 0.1 l 0.4,8.8 v 0.1 l 1.1,10.4 c 0,0.3 0.1,0.6 0.1,0.9 l 1.6,9.4 c 0,0.1 0,0.2 0.1,0.3 l 2.6,11 c 0.1,0.4 0.2,0.8 0.3,1.2 l 0.3,1.2 c 0.7,2.6 1.5,5.1 2.4,7.6 l 3.3,9 c 0.2,0.5 0.4,0.9 0.6,1.4 l 0.9,2 c 2.1,4.8 4.3,9.5 6.8,14.1 l 0.3,0.5 c 0.2,0.4 0.4,0.8 0.7,1.2 76.7,-52.8 148.5,-81.5 317.6,-44.5 2.9,-12.5 4.4,-25.5 4.4,-38.9 0.1,-6.8 -0.3,-13.5 -1.1,-20 z"
   id="path184"
   style="fill:url(#SVGID_12_);stroke-width:4.5632" />
</g><g
     id="g244"
     style="stroke-width:4.5632">
	<g
   id="g206"
   style="stroke-width:4.5632">
		<g
   id="g204"
   style="stroke-width:4.5632">
			<path
   class="st15"
   d="m 1066.5,244 v -8.8 h 6.3 v 8.8 z"
   id="path188"
   style="stroke-width:4.5632" />
			<path
   class="st15"
   d="m 1095.7,244.3 c -2.4,0 -4.7,-0.5 -6.7,-1.5 -2,-1 -3.8,-2.3 -5.2,-4 -1.4,-1.7 -2.6,-3.6 -3.4,-5.9 -0.8,-2.2 -1.2,-4.5 -1.2,-7 0,-2.6 0.4,-5 1.2,-7.3 0.8,-2.3 2,-4.2 3.4,-5.9 1.5,-1.7 3.2,-3 5.3,-4 2,-1 4.3,-1.5 6.8,-1.5 2.9,0 5.4,0.7 7.6,2.1 2.2,1.4 4,3.2 5.4,5.4 V 208 h 6.7 v 35 c 0,2.6 -0.5,4.9 -1.4,7 -1,2 -2.3,3.7 -4,5.1 -1.7,1.4 -3.8,2.5 -6.1,3.2 -2.3,0.7 -4.9,1.1 -7.6,1.1 -4,0 -7.3,-0.7 -9.9,-2 -2.6,-1.3 -4.9,-3.2 -6.6,-5.7 l 4.3,-4 c 1.4,1.9 3.2,3.4 5.3,4.4 2.2,1 4.5,1.5 7,1.5 1.6,0 3,-0.2 4.4,-0.6 1.4,-0.4 2.6,-1.1 3.7,-1.9 1.1,-0.9 1.9,-2 2.5,-3.3 0.6,-1.3 0.9,-2.9 0.9,-4.7 v -5.5 c -1.3,2.2 -3.1,3.9 -5.3,5.1 -2.2,1.1 -4.6,1.6 -7.1,1.6 z m 2.5,-6.1 c 1.1,0 2.2,-0.2 3.3,-0.6 1.1,-0.4 2,-0.9 2.9,-1.6 0.9,-0.7 1.7,-1.4 2.3,-2.3 0.6,-0.8 1.1,-1.8 1.4,-2.7 v -9.4 c -0.5,-1.1 -1.1,-2.2 -1.8,-3.1 -0.7,-0.9 -1.6,-1.8 -2.5,-2.4 -0.9,-0.7 -1.9,-1.2 -3,-1.6 -1.1,-0.4 -2.1,-0.6 -3.2,-0.6 -1.7,0 -3.1,0.4 -4.4,1.1 -1.3,0.7 -2.4,1.7 -3.3,2.8 -0.9,1.2 -1.6,2.5 -2.1,4 -0.5,1.5 -0.8,3 -0.8,4.5 0,1.7 0.3,3.2 0.9,4.6 0.6,1.4 1.4,2.7 2.4,3.8 1,1.1 2.2,1.9 3.5,2.6 1.3,0.6 2.8,0.9 4.4,0.9 z"
   id="path190"
   style="stroke-width:4.5632" />
			<path
   class="st15"
   d="m 1140.9,244.7 c -2.8,0 -5.4,-0.5 -7.7,-1.5 -2.3,-1 -4.2,-2.4 -5.8,-4.1 -1.6,-1.7 -2.8,-3.7 -3.7,-6 -0.9,-2.3 -1.3,-4.6 -1.3,-7.1 0,-2.5 0.4,-4.9 1.3,-7.1 0.9,-2.3 2.1,-4.3 3.8,-6 1.6,-1.7 3.6,-3.1 5.9,-4.1 2.3,-1 4.8,-1.5 7.6,-1.5 2.8,0 5.3,0.5 7.6,1.5 2.3,1 4.2,2.4 5.9,4.1 1.6,1.7 2.9,3.7 3.8,6 0.9,2.3 1.3,4.6 1.3,7.1 0,2.5 -0.4,4.9 -1.3,7.1 -0.9,2.3 -2.1,4.3 -3.8,6 -1.6,1.7 -3.6,3.1 -5.9,4.1 -2.3,1 -4.9,1.5 -7.7,1.5 z m -10.7,-18.6 c 0,1.7 0.3,3.4 0.8,4.8 0.6,1.5 1.3,2.7 2.3,3.8 1,1.1 2.1,1.9 3.4,2.5 1.3,0.6 2.7,0.9 4.2,0.9 1.5,0 2.9,-0.3 4.2,-0.9 1.3,-0.6 2.4,-1.5 3.4,-2.6 1,-1.1 1.7,-2.4 2.3,-3.9 0.6,-1.5 0.8,-3.1 0.8,-4.8 0,-1.7 -0.3,-3.3 -0.8,-4.8 -0.6,-1.5 -1.3,-2.8 -2.3,-3.9 -1,-1.1 -2.1,-2 -3.4,-2.6 -1.3,-0.6 -2.7,-0.9 -4.2,-0.9 -1.5,0 -2.9,0.3 -4.2,1 -1.3,0.7 -2.4,1.5 -3.4,2.6 -1,1.1 -1.7,2.4 -2.3,3.9 -0.5,1.6 -0.8,3.2 -0.8,4.9 z"
   id="path192"
   style="stroke-width:4.5632" />
			<path
   class="st15"
   d="m 1177.3,244.7 c -3.8,0 -6.6,-1.2 -8.5,-3.7 -1.9,-2.5 -2.9,-6.1 -2.9,-11 v -22 h 7.6 v 20.5 c 0,6.5 2.3,9.7 6.9,9.7 2.2,0 4.2,-0.7 6.1,-2 1.9,-1.3 3.4,-3.3 4.5,-5.8 V 208 h 7.6 v 27.1 c 0,0.9 0.1,1.5 0.4,1.9 0.3,0.4 0.8,0.6 1.6,0.6 v 6.5 c -0.8,0.1 -1.4,0.2 -1.9,0.3 -0.5,0 -1,0.1 -1.4,0.1 -1.4,0 -2.5,-0.4 -3.5,-1.1 -1,-0.8 -1.5,-1.7 -1.5,-2.9 l -0.1,-3.6 c -1.6,2.6 -3.7,4.6 -6.3,6 -2.7,1.1 -5.5,1.8 -8.6,1.8 z"
   id="path194"
   style="stroke-width:4.5632" />
			<path
   class="st15"
   d="m 1218.2,244 -13.8,-36 h 7.8 l 10.3,29.6 10.5,-29.6 h 7.2 l -13.8,36 z"
   id="path196"
   style="stroke-width:4.5632" />
			<path
   class="st15"
   d="m 1241.9,244 v -8.8 h 6.3 v 8.8 z"
   id="path198"
   style="stroke-width:4.5632" />
			<path
   class="st15"
   d="m 1259,244 v -29.3 h -4.8 v -5.9 h 4.8 v -1.4 c 0,-4.5 1,-8 3.1,-10.5 2.1,-2.6 4.9,-3.9 8.4,-3.9 1.5,0 2.9,0.2 4.3,0.6 1.4,0.4 2.8,0.9 4.1,1.6 l -1.7,5.6 c -0.7,-0.4 -1.5,-0.8 -2.4,-1 -0.9,-0.2 -1.8,-0.4 -2.7,-0.4 -1.8,0 -3.2,0.7 -4.1,2 -0.9,1.3 -1.4,3.3 -1.4,5.8 v 1.7 h 9.2 v 5.9 h -9.2 V 244 Z"
   id="path200"
   style="stroke-width:4.5632" />
			<path
   class="st15"
   d="m 1301.7,214.5 c -2.9,0.1 -5.5,0.8 -7.8,2 -2.3,1.3 -3.9,3.1 -4.9,5.4 v 22 h -7.6 v -36 h 7 v 8.1 c 1.2,-2.5 2.9,-4.5 4.9,-6 2,-1.5 4.1,-2.3 6.4,-2.4 0.5,0 0.8,0 1.1,0 0.3,0 0.6,0 0.8,0.1 z"
   id="path202"
   style="stroke-width:4.5632" />
		</g>
	</g>
	<g
   id="g242"
   style="stroke-width:4.5632">
		<g
   id="g240"
   style="stroke-width:4.5632">
			<path
   class="st15"
   d="M 528,143.8 H 514.6 V 86.5 c 0,-11.9 -1.9,-20.7 -5.7,-26.4 -3.8,-5.6 -9.5,-8.5 -16.9,-8.5 -3.9,0 -7.7,0.7 -11.1,2.2 -3.5,1.4 -6.7,3.5 -9.7,6.1 -3,2.6 -5.5,5.7 -7.8,9.4 -2.2,3.6 -3.9,7.6 -5.1,11.9 v 62.6 H 444.9 V 86.5 c 0,-12.2 -1.8,-21.1 -5.5,-26.6 -3.7,-5.5 -9.3,-8.3 -16.9,-8.3 -7.8,0 -14.6,2.7 -20.7,8.1 -6,5.4 -10.4,12.5 -13,21.3 v 62.8 H 375.4 V 41.2 h 12.2 v 23.2 c 4.2,-7.9 9.7,-14 16.5,-18.4 6.8,-4.4 14.4,-6.6 22.7,-6.6 8.7,0 15.6,2.4 20.8,7.3 5.2,4.9 8.4,11.2 9.6,19.1 9.6,-17.6 22.8,-26.4 39.6,-26.4 5.8,0 10.7,1.1 14.7,3.2 4,2.1 7.2,5.1 9.7,9 2.4,3.9 4.2,8.5 5.3,14 1.1,5.5 1.7,11.5 1.7,18.2 z"
   id="path208"
   style="stroke-width:4.5632" />
			<path
   class="st15"
   d="m 600.7,145.8 c -7.5,0 -14.3,-1.4 -20.6,-4.2 -6.2,-2.8 -11.7,-6.7 -16.3,-11.6 -4.6,-4.9 -8.2,-10.6 -10.7,-17 -2.6,-6.4 -3.8,-13.3 -3.8,-20.7 0,-7.2 1.3,-14 3.8,-20.4 2.6,-6.4 6.1,-11.9 10.6,-16.7 4.5,-4.8 9.9,-8.6 16.3,-11.4 6.3,-2.8 13.1,-4.2 20.5,-4.2 7.5,0 14.3,1.4 20.6,4.2 6.2,2.8 11.6,6.7 16.1,11.5 4.5,4.9 7.9,10.4 10.4,16.7 2.5,6.3 3.7,13 3.7,20.1 0,1.1 0,2.1 0,3.2 0,1.1 -0.1,1.8 -0.2,2.2 h -87.9 c 0.4,5.5 1.7,10.6 3.8,15.3 2.2,4.7 5,8.7 8.4,12.1 3.4,3.4 7.3,6.1 11.7,8 4.4,1.9 9.1,2.9 14.1,2.9 3.3,0 6.6,-0.5 9.8,-1.4 3.3,-0.9 6.3,-2.2 9.1,-3.7 2.8,-1.6 5.3,-3.5 7.5,-5.8 2.2,-2.3 3.9,-4.8 5.1,-7.6 l 11.6,3.2 c -1.6,3.8 -3.8,7.3 -6.7,10.3 -2.9,3.1 -6.2,5.8 -10,8.1 -3.8,2.3 -8,4.1 -12.6,5.3 -4.5,0.9 -9.3,1.6 -14.3,1.6 z m 37.8,-58.7 c -0.4,-5.5 -1.7,-10.5 -3.8,-15.1 -2.2,-4.5 -4.9,-8.4 -8.3,-11.7 -3.3,-3.3 -7.2,-5.8 -11.6,-7.7 -4.4,-1.8 -9.1,-2.8 -14.1,-2.8 -5,0 -9.7,0.9 -14.2,2.8 -4.5,1.8 -8.4,4.4 -11.7,7.7 -3.3,3.3 -6,7.2 -8.1,11.8 -2,4.6 -3.3,9.6 -3.6,15 z"
   id="path210"
   style="stroke-width:4.5632" />
			<path
   class="st15"
   d="m 706.1,145.8 c -8,0 -15.8,-1.3 -23.4,-3.9 -7.6,-2.6 -14.2,-6.4 -19.7,-11.4 l 6.1,-9.1 c 5.8,4.7 11.7,8.3 17.6,10.6 6,2.4 12.4,3.5 19.2,3.5 8.3,0 14.9,-1.7 19.8,-5 4.9,-3.4 7.4,-8.1 7.4,-14.3 0,-2.9 -0.7,-5.3 -2,-7.2 -1.3,-1.9 -3.3,-3.6 -5.8,-5 -2.6,-1.4 -5.8,-2.7 -9.7,-3.8 -3.9,-1.1 -8.4,-2.3 -13.5,-3.4 -5.9,-1.4 -11,-2.9 -15.4,-4.3 -4.3,-1.4 -7.9,-3.1 -10.7,-4.9 -2.8,-1.8 -4.9,-4.1 -6.3,-6.8 -1.4,-2.7 -2.1,-6.1 -2.1,-10.1 0,-5.1 1,-9.7 3.1,-13.6 2,-3.9 4.8,-7.2 8.3,-9.8 3.5,-2.6 7.5,-4.5 12.2,-5.8 4.7,-1.3 9.6,-2 14.9,-2 7.9,0 15,1.3 21.5,3.8 6.4,2.6 11.6,5.9 15.6,10.1 l -6.5,7.9 c -3.8,-3.9 -8.4,-6.9 -13.9,-8.9 -5.5,-2 -11.1,-3 -17,-3 -3.5,0 -6.8,0.4 -9.8,1.1 -3,0.7 -5.7,1.9 -8,3.4 -2.3,1.6 -4.1,3.6 -5.4,6 -1.3,2.4 -2,5.3 -2,8.6 0,2.8 0.5,5 1.4,6.7 0.9,1.7 2.4,3.2 4.5,4.4 2.1,1.3 4.8,2.4 8,3.3 3.2,1 7.1,2 11.7,3.1 6.6,1.6 12.3,3.2 17.3,4.7 5,1.6 9.2,3.4 12.5,5.5 3.3,2.1 5.9,4.7 7.6,7.7 1.7,3 2.6,6.7 2.6,11 0,9.5 -3.6,16.9 -10.8,22.5 -7.4,5.6 -17.1,8.4 -29.3,8.4 z"
   id="path212"
   style="stroke-width:4.5632" />
			<path
   class="st16"
   d="m 860.3,145.8 c -7.1,0 -13.7,-1.5 -19.7,-4.4 -6,-3 -11.2,-6.9 -15.6,-11.7 -4.3,-4.9 -7.7,-10.5 -10.1,-16.8 -2.4,-6.4 -3.6,-13 -3.6,-20 0,-7.2 1.2,-14.1 3.5,-20.6 2.4,-6.5 5.6,-12.2 9.8,-17 4.1,-4.9 9.1,-8.7 14.8,-11.5 5.7,-2.8 12,-4.2 18.8,-4.2 8.7,0 16.3,2.3 23,6.8 6.7,4.5 11.9,10 15.8,16.4 V 0 h 13.4 v 126.5 c 0,3.7 1.6,5.5 4.7,5.5 v 11.8 c -2,0.4 -3.5,0.6 -4.7,0.6 -3.2,0 -5.9,-1 -8.3,-3.1 -2.4,-2 -3.5,-4.5 -3.5,-7.4 v -10 c -4.1,6.7 -9.6,12 -16.5,16 -7.1,3.9 -14.3,5.9 -21.8,5.9 z m 3,-11.9 c 3.3,0 6.8,-0.7 10.5,-2 3.7,-1.3 7.3,-3.1 10.5,-5.4 3.3,-2.3 6.1,-5 8.4,-8.1 2.3,-3.1 3.7,-6.4 4.2,-9.9 V 76.8 c -1.3,-3.5 -3.2,-6.9 -5.7,-9.9 -2.5,-3.1 -5.4,-5.8 -8.6,-8.2 -3.2,-2.4 -6.7,-4.2 -10.3,-5.5 -3.7,-1.3 -7.3,-2 -10.8,-2 -5.5,0 -10.5,1.2 -15,3.5 -4.5,2.4 -8.3,5.5 -11.5,9.4 -3.2,3.9 -5.7,8.3 -7.4,13.3 -1.7,5 -2.6,10.1 -2.6,15.4 0,5.5 1,10.8 3,15.8 2,5 4.7,9.4 8.1,13.1 3.4,3.7 7.5,6.7 12.1,9 4.7,2.1 9.7,3.2 15.1,3.2 z"
   id="path214"
   style="stroke-width:4.5632" />
			<path
   class="st16"
   d="m 991.9,53 c -9.1,0.3 -16.9,2.8 -23.6,7.5 -6.7,4.7 -11.5,11.2 -14.2,19.5 v 63.8 H 940.7 V 41.2 h 12.6 v 24.6 c 3.8,-7.9 8.9,-14 15.4,-18.5 6.4,-4.5 13.3,-6.7 20.7,-6.7 1,0 1.9,0.1 2.6,0.2 z"
   id="path216"
   style="stroke-width:4.5632" />
			<path
   class="st16"
   d="m 1048.4,145.8 c -7.5,0 -14.3,-1.4 -20.5,-4.2 -6.2,-2.8 -11.5,-6.7 -16.1,-11.5 -4.5,-4.9 -8,-10.5 -10.5,-16.9 -2.5,-6.4 -3.7,-13.2 -3.7,-20.3 0,-7.2 1.3,-14.1 3.8,-20.5 2.6,-6.4 6.1,-12.1 10.6,-16.9 4.5,-4.9 9.9,-8.7 16.1,-11.6 6.2,-2.9 12.9,-4.3 20.3,-4.3 7.4,0 14.1,1.4 20.4,4.3 6.2,2.9 11.6,6.8 16.2,11.6 4.5,4.9 8.1,10.5 10.6,16.9 2.6,6.4 3.8,13.3 3.8,20.5 0,7.1 -1.2,13.9 -3.7,20.3 -2.5,6.4 -6,12.1 -10.5,16.9 -4.5,4.9 -9.9,8.7 -16.2,11.5 -6.2,2.8 -13.1,4.2 -20.6,4.2 z M 1011.2,93 c 0,5.8 1,11.1 3,16.1 2,4.9 4.6,9.3 8,13 3.3,3.7 7.3,6.7 11.8,8.8 4.5,2.1 9.4,3.2 14.5,3.2 5.1,0 9.9,-1.1 14.5,-3.3 4.6,-2.2 8.5,-5.1 11.9,-8.9 3.4,-3.7 6.1,-8.1 8.1,-13.1 2,-5 3,-10.4 3,-16.2 0,-5.6 -1,-11 -3,-16.1 -2,-5.1 -4.7,-9.5 -8.1,-13.2 -3.4,-3.7 -7.4,-6.7 -11.9,-8.9 -4.5,-2.2 -9.4,-3.3 -14.5,-3.3 -5.1,0 -9.9,1.1 -14.4,3.3 -4.5,2.2 -8.4,5.2 -11.8,9 -3.4,3.8 -6.1,8.2 -8.1,13.3 -2,5.1 -3,10.5 -3,16.3 z"
   id="path218"
   style="stroke-width:4.5632" />
			<path
   class="st16"
   d="M 1121.9,19.7 V 0 h 13.4 v 19.7 z m 0,124.1 V 41.2 h 13.4 v 102.6 z"
   id="path220"
   style="stroke-width:4.5632" />
			<path
   class="st16"
   d="m 1214.1,138.9 c -0.8,0.4 -1.9,0.9 -3.4,1.6 -1.5,0.7 -3.3,1.3 -5.2,2 -2,0.7 -4.2,1.3 -6.7,1.8 -2.5,0.5 -5.1,0.8 -7.9,0.8 -2.9,0 -5.6,-0.4 -8.3,-1.2 -2.6,-0.8 -4.9,-2 -6.9,-3.6 -2,-1.6 -3.5,-3.7 -4.7,-6.2 -1.2,-2.5 -1.8,-5.4 -1.8,-8.7 V 51.8 H 1155 V 41.2 h 14.2 V 6.5 h 13.4 v 34.7 h 23.6 v 10.6 h -23.6 v 69.7 c 0.3,3.8 1.6,6.6 4,8.4 2.4,1.8 5.2,2.7 8.4,2.7 3.8,0 7.2,-0.6 10,-1.9 2.9,-1.2 4.7,-2.1 5.5,-2.7 z"
   id="path222"
   style="stroke-width:4.5632" />
			<path
   class="st16"
   d="m 1264.9,145.8 c -8,0 -15.8,-1.3 -23.4,-3.9 -7.6,-2.6 -14.2,-6.4 -19.7,-11.4 l 6.1,-9.1 c 5.8,4.7 11.7,8.3 17.6,10.6 6,2.4 12.4,3.5 19.2,3.5 8.3,0 14.9,-1.7 19.8,-5 4.9,-3.4 7.4,-8.1 7.4,-14.3 0,-2.9 -0.7,-5.3 -2,-7.2 -1.3,-1.9 -3.3,-3.6 -5.8,-5 -2.6,-1.4 -5.8,-2.7 -9.7,-3.8 -3.9,-1.1 -8.4,-2.3 -13.5,-3.4 -5.9,-1.4 -11,-2.9 -15.4,-4.3 -4.3,-1.4 -7.9,-3.1 -10.7,-4.9 -2.8,-1.8 -4.9,-4.1 -6.3,-6.8 -1.4,-2.7 -2.1,-6.1 -2.1,-10.1 0,-5.1 1,-9.7 3.1,-13.6 2,-3.9 4.8,-7.2 8.3,-9.8 3.5,-2.6 7.6,-4.5 12.2,-5.8 4.7,-1.3 9.6,-2 14.9,-2 7.9,0 15,1.3 21.5,3.8 6.4,2.6 11.6,5.9 15.6,10.1 l -6.5,7.9 c -3.8,-3.9 -8.4,-6.9 -13.9,-8.9 -5.5,-2 -11.1,-3 -17,-3 -3.5,0 -6.8,0.4 -9.8,1.1 -3,0.7 -5.7,1.9 -8,3.4 -2.3,1.6 -4.1,3.6 -5.4,6 -1.3,2.4 -2,5.3 -2,8.6 0,2.8 0.5,5 1.4,6.7 0.9,1.7 2.4,3.2 4.5,4.4 2.1,1.3 4.8,2.4 8,3.3 3.2,1 7.1,2 11.7,3.1 6.6,1.6 12.3,3.2 17.3,4.7 5,1.6 9.2,3.4 12.5,5.5 3.3,2.1 5.9,4.7 7.6,7.7 1.7,3 2.6,6.7 2.6,11 0,9.5 -3.6,16.9 -10.8,22.5 -7.4,5.6 -17.1,8.4 -29.3,8.4 z"
   id="path224"
   style="stroke-width:4.5632" />
			<path
   class="st16"
   d="m 409.4,312.4 c -8,0 -15.8,-1.3 -23.4,-3.9 -7.6,-2.6 -14.2,-6.4 -19.7,-11.4 l 6.1,-9.1 c 5.8,4.7 11.7,8.3 17.6,10.6 6,2.4 12.4,3.5 19.2,3.5 8.3,0 14.9,-1.7 19.8,-5 4.9,-3.3 7.4,-8.1 7.4,-14.3 0,-2.9 -0.7,-5.3 -2,-7.2 -1.3,-1.9 -3.3,-3.6 -5.8,-5 -2.6,-1.4 -5.8,-2.7 -9.7,-3.8 -3.9,-1.1 -8.4,-2.3 -13.5,-3.4 -5.9,-1.4 -11,-2.9 -15.4,-4.3 -4.3,-1.4 -7.9,-3.1 -10.7,-4.9 -2.8,-1.8 -4.9,-4.1 -6.3,-6.8 -1.4,-2.7 -2.1,-6.1 -2.1,-10.1 0,-5.1 1,-9.7 3.1,-13.6 2,-3.9 4.8,-7.2 8.3,-9.8 3.5,-2.6 7.5,-4.5 12.2,-5.8 4.7,-1.3 9.6,-2 14.9,-2 7.9,0 15,1.3 21.5,3.8 6.4,2.6 11.6,5.9 15.6,10.1 l -6.5,7.9 c -3.8,-3.9 -8.4,-6.9 -13.9,-8.9 -5.5,-2 -11.1,-3 -17,-3 -3.5,0 -6.8,0.4 -9.8,1.1 -3,0.7 -5.7,1.9 -8,3.4 -2.3,1.6 -4.1,3.6 -5.4,6 -1.3,2.4 -2,5.3 -2,8.6 0,2.8 0.5,5 1.4,6.7 0.9,1.7 2.4,3.2 4.5,4.4 2.1,1.3 4.8,2.4 8,3.3 3.2,1 7.1,2 11.7,3.1 6.6,1.6 12.3,3.2 17.3,4.7 5,1.6 9.2,3.4 12.5,5.5 3.3,2.1 5.9,4.7 7.6,7.7 1.7,3 2.6,6.7 2.6,11 0,9.5 -3.6,16.9 -10.8,22.5 -7.3,5.6 -17.1,8.4 -29.3,8.4 z"
   id="path226"
   style="stroke-width:4.5632" />
			<path
   class="st16"
   d="m 515,312.4 c -7.5,0 -14.3,-1.4 -20.5,-4.2 -6.2,-2.8 -11.5,-6.7 -16.1,-11.5 -4.5,-4.9 -8,-10.5 -10.5,-16.9 -2.5,-6.4 -3.7,-13.2 -3.7,-20.3 0,-7.2 1.3,-14.1 3.8,-20.5 2.6,-6.4 6.1,-12.1 10.6,-16.9 4.5,-4.9 9.9,-8.7 16.1,-11.6 6.2,-2.9 12.9,-4.3 20.3,-4.3 7.4,0 14.1,1.4 20.4,4.3 6.2,2.9 11.6,6.8 16.2,11.6 4.5,4.9 8.1,10.5 10.6,16.9 2.6,6.4 3.8,13.3 3.8,20.5 0,7.1 -1.3,13.9 -3.7,20.3 -2.5,6.4 -6,12.1 -10.5,16.9 -4.5,4.9 -9.9,8.7 -16.2,11.5 -6.2,2.8 -13.1,4.2 -20.6,4.2 z m -37.2,-52.8 c 0,5.8 1,11.1 3,16.1 2,5 4.6,9.3 8,13 3.3,3.7 7.3,6.7 11.8,8.8 4.5,2.1 9.4,3.2 14.5,3.2 5.1,0 9.9,-1.1 14.5,-3.3 4.5,-2.2 8.5,-5.1 11.9,-8.9 3.4,-3.7 6.1,-8.1 8.1,-13.1 2,-5 3,-10.4 3,-16.2 0,-5.6 -1,-11 -3,-16.1 -2,-5.1 -4.7,-9.5 -8.1,-13.2 -3.4,-3.7 -7.4,-6.7 -11.9,-8.9 -4.5,-2.2 -9.4,-3.3 -14.5,-3.3 -5.1,0 -9.9,1.1 -14.4,3.3 -4.5,2.2 -8.4,5.2 -11.8,9 -3.4,3.8 -6.1,8.2 -8.1,13.3 -2,5.1 -3,10.5 -3,16.3 z"
   id="path228"
   style="stroke-width:4.5632" />
			<path
   class="st16"
   d="m 581.4,258.8 c 0,-7.2 1.2,-14.1 3.7,-20.5 2.5,-6.4 6,-12 10.5,-16.8 4.5,-4.8 9.9,-8.6 16.3,-11.3 6.3,-2.8 13.3,-4.1 20.9,-4.1 9.7,0 18.2,2.2 25.4,6.6 7.2,4.4 12.7,10.3 16.3,17.8 l -13,4.1 c -2.9,-5.3 -6.9,-9.4 -12.1,-12.3 -5.2,-3 -10.9,-4.4 -17.2,-4.4 -5.3,0 -10.1,1.1 -14.7,3.2 -4.5,2.1 -8.5,5 -11.8,8.6 -3.3,3.6 -6,7.9 -7.9,12.9 -1.9,5 -2.9,10.4 -2.9,16.3 0,5.8 1,11.2 3,16.3 2,5.1 4.7,9.6 8.1,13.3 3.4,3.7 7.4,6.7 11.9,8.9 4.5,2.2 9.4,3.3 14.5,3.3 3.3,0 6.5,-0.5 9.8,-1.4 3.2,-0.9 6.2,-2.2 9,-3.8 2.8,-1.6 5.1,-3.5 7.1,-5.6 2,-2.1 3.3,-4.3 4.1,-6.7 l 13.2,3.9 c -1.4,3.7 -3.5,7.1 -6.3,10.1 -2.8,3.1 -6,5.8 -9.8,8.1 -3.7,2.3 -7.9,4.1 -12.4,5.3 -4.5,1.2 -9.2,1.9 -14.1,1.9 -7.5,0 -14.4,-1.4 -20.7,-4.2 -6.3,-2.8 -11.8,-6.7 -16.3,-11.6 -4.6,-4.9 -8.2,-10.6 -10.7,-17 -2.6,-6.6 -3.9,-13.5 -3.9,-20.9 z"
   id="path230"
   style="stroke-width:4.5632" />
			<path
   class="st16"
   d="M 696.6,186.3 V 166.6 H 710 v 19.7 z m 0,124.1 V 207.8 H 710 v 102.6 z"
   id="path232"
   style="stroke-width:4.5632" />
			<path
   class="st16"
   d="m 765.4,312.4 c -4.9,0 -9.4,-0.8 -13.5,-2.5 -4.1,-1.7 -7.8,-3.9 -10.8,-6.8 -3.1,-2.9 -5.5,-6.3 -7.2,-10.1 -1.7,-3.9 -2.6,-8 -2.6,-12.5 0,-4.5 1,-8.6 3.2,-12.4 2.1,-3.8 5.1,-7.1 8.9,-9.8 3.8,-2.8 8.3,-4.9 13.6,-6.4 5.3,-1.5 11,-2.3 17.3,-2.3 5.3,0 10.6,0.5 16,1.4 5.4,0.9 10.2,2.2 14.4,3.9 v -9.3 c 0,-9.1 -2.6,-16.3 -7.7,-21.6 -5.1,-5.3 -12.2,-8 -21.3,-8 -5.3,0 -10.6,1.1 -16.2,3.2 -5.5,2.1 -11.1,5.1 -16.7,9.1 l -4.7,-8.9 c 13.3,-8.9 26.1,-13.4 38.6,-13.4 12.9,0 23,3.6 30.3,10.8 7.4,7.2 11,17.2 11,29.9 V 293 c 0,3.7 1.6,5.5 4.9,5.5 v 11.8 c -2.2,0.4 -3.9,0.6 -5.1,0.6 -3.4,0 -6.1,-0.9 -8,-2.6 -1.9,-1.7 -2.9,-4.1 -3.1,-7.1 l -0.4,-8.1 c -4.7,6.2 -10.7,10.9 -17.8,14.2 -7.1,3.4 -14.9,5.1 -23.1,5.1 z m 3.1,-10.3 c 7,0 13.4,-1.3 19.2,-3.9 5.8,-2.6 10.3,-6.1 13.3,-10.4 1.2,-1.2 2.1,-2.5 2.7,-3.8 0.6,-1.3 0.9,-2.7 0.9,-3.8 v -16.7 c -4.5,-1.7 -9.1,-3 -13.9,-3.9 -4.8,-0.9 -9.7,-1.4 -14.7,-1.4 -9.5,0 -17.1,2 -23,5.9 -5.9,3.9 -8.9,9.1 -8.9,15.6 0,3.2 0.6,6.1 1.9,8.9 1.2,2.8 3,5.2 5.1,7.2 2.2,2 4.8,3.6 7.8,4.8 3,1 6.2,1.5 9.6,1.5 z"
   id="path234"
   style="stroke-width:4.5632" />
			<path
   class="st16"
   d="m 879,312.4 c -11.2,0 -19.5,-3.7 -24.9,-11.1 -5.5,-7.4 -8.2,-18.5 -8.2,-33.2 v -60.3 h 13.4 v 57.9 c 0,23.2 7.9,34.9 23.8,34.9 3.9,0 7.8,-0.7 11.6,-2 3.8,-1.3 7.3,-3.2 10.5,-5.7 3.2,-2.5 6.1,-5.4 8.7,-8.9 2.6,-3.4 4.6,-7.3 6.2,-11.6 v -64.6 h 13.4 v 85.3 c 0,3.7 1.6,5.5 4.7,5.5 v 11.8 c -1.6,0.3 -2.9,0.4 -3.8,0.4 -0.9,0 -1.7,0 -2.1,0 -3.2,-0.1 -5.7,-1.2 -7.7,-3.3 -2,-2.1 -3,-4.9 -3,-8.5 v -11.8 c -4.5,8 -10.5,14.2 -18.2,18.6 -7.5,4.4 -15.7,6.6 -24.4,6.6 z"
   id="path236"
   style="stroke-width:4.5632" />
			<path
   class="st16"
   d="m 966.5,207.8 30.7,40.2 1.6,3 1.6,-3 30.7,-40.2 h 14.4 l -39.2,51.6 39.2,51 h -14.4 l -30.7,-40 -1.6,-2.8 -1.6,2.8 -30.7,40 h -14.4 l 39.2,-51 -39.2,-51.6 z"
   id="path238"
   style="stroke-width:4.5632" />
		</g>
	</g>
</g><ellipse
     class="st17"
     cx="32.599998"
     cy="92.400002"
     rx="24.5"
     ry="23.700001"
     id="ellipse246"
     style="stroke-width:4.5632" /><g
     id="g250"
     style="stroke-width:4.5632">
	<ellipse
   class="st18"
   cx="32.599998"
   cy="324.60001"
   rx="24.5"
   ry="23.700001"
   id="ellipse248"
   style="stroke-width:4.5632" />
</g><ellipse
     class="st19"
     cx="32.599998"
     cy="266.5"
     rx="24.5"
     ry="23.700001"
     id="ellipse252"
     style="stroke-width:4.5632" /><ellipse
     class="st20"
     cx="32.599998"
     cy="208.5"
     rx="24.5"
     ry="23.700001"
     id="ellipse254"
     style="stroke-width:4.5632" /><g
     id="g258"
     style="stroke-width:4.5632">
	<ellipse
   class="st21"
   cx="32.599998"
   cy="150.5"
   rx="24.5"
   ry="23.700001"
   id="ellipse256"
   style="stroke-width:4.5632" />
</g><g
     id="g262"
     style="stroke-width:4.5632">
	<ellipse
   class="st22"
   cx="32.599998"
   cy="34.400002"
   rx="24.5"
   ry="23.700001"
   id="ellipse260"
   style="stroke-width:4.5632" />
</g></g>
</svg>
