<?xml version="1.0" encoding="UTF-8" standalone="no"?>
<svg
   xmlns:dc="http://purl.org/dc/elements/1.1/"
   xmlns:cc="http://creativecommons.org/ns#"
   xmlns:rdf="http://www.w3.org/1999/02/22-rdf-syntax-ns#"
   xmlns:svg="http://www.w3.org/2000/svg"
   xmlns="http://www.w3.org/2000/svg"
   xmlns:sodipodi="http://sodipodi.sourceforge.net/DTD/sodipodi-0.dtd"
   xmlns:inkscape="http://www.inkscape.org/namespaces/inkscape"
   width="80"
   height="80"
   viewBox="0 0 80 80"
   fill="none"
   version="1.1"
   id="svg102"
   sodipodi:docname="logo1j1s-france-relance_adj_3.svg"
   inkscape:version="1.0.2 (1.0.2+r75+1)">
  <metadata
     id="metadata108">
    <rdf:RDF>
      <cc:Work
         rdf:about="">
        <dc:format>image/svg+xml</dc:format>
        <dc:type
           rdf:resource="http://purl.org/dc/dcmitype/StillImage" />
        <dc:title></dc:title>
      </cc:Work>
    </rdf:RDF>
  </metadata>
  <defs
     id="defs106" />
  <sodipodi:namedview
     pagecolor="#ffffff"
     bordercolor="#666666"
     borderopacity="1"
     objecttolerance="10"
     gridtolerance="10"
     guidetolerance="10"
     inkscape:pageopacity="0"
     inkscape:pageshadow="2"
     inkscape:window-width="2560"
     inkscape:window-height="1385"
     id="namedview104"
     showgrid="false"
     inkscape:zoom="8.3214286"
     inkscape:cx="85"
     inkscape:cy="56"
     inkscape:window-x="0"
     inkscape:window-y="27"
     inkscape:window-maximized="1"
     inkscape:current-layer="g1204" />
  <g
     id="g1001"
     transform="matrix(0.47106063,0,0,0.47106063,3.5766418e-4,13.663)"
     style="stroke-width:2.12287">
    <g
       id="g1075"
       transform="matrix(1.34063,0,0,1.34063,-26.570576,-34.319565)"
       style="stroke-width:1.58349">
      <g
         id="g1129">
        <g
           id="g1204"
           transform="translate(-0.74967436,1.7681917)">
          <g
             id="g1149"
             transform="matrix(1.3959446,0,0,1.3959446,-30.765566,-85.034178)"
             style="stroke-width:1.13436">
            <g
               id="g1021"
               transform="translate(40.878114,-0.62681367)"
               style="stroke-width:1.13436">
              <path
                 d="M 0,100.648 H 2.163 L 2.961,97.7921 H 0 v -2.163 h 3.549 l 1.029,-3.759 h 2.394 l -1.029,3.759 h 2.94 l 1.029,-3.759 h 2.394 l -1.029,3.759 h 1.533 v 2.163 h -2.121 l -0.798,2.8559 h 2.919 v 2.163 H 9.303 L 8.274,106.57 H 5.88 l 1.029,-3.759 H 3.969 L 2.94,106.57 H 0.546 l 1.029,-3.759 H 0 Z m 4.557,0 h 2.94 l 0.798,-2.8559 h -2.94 z"
                 fill="#2fac66"
                 id="path2"
                 style="stroke-width:2.43385" />
              <path
                 d="M 18.2136,106.549 V 94.7681 l -3.045,1.722 -1.407,-2.016 4.536,-2.625 h 2.751 v 14.6999 z"
                 fill="#2fac66"
                 id="path4"
                 style="stroke-width:2.43385" />
              <path
                 d="m 26.3178,94.1381 c -0.476,0 -0.889,-0.168 -1.239,-0.504 -0.336,-0.35 -0.504,-0.763 -0.504,-1.239 0,-0.476 0.168,-0.882 0.504,-1.218 0.35,-0.35 0.763,-0.525 1.239,-0.525 0.462,0 0.861,0.175 1.197,0.525 0.35,0.336 0.525,0.742 0.525,1.218 0,0.476 -0.175,0.889 -0.525,1.239 -0.336,0.336 -0.735,0.504 -1.197,0.504 z m 1.365,13.5659 c 0,1.316 -0.322,2.331 -0.966,3.045 -0.63,0.714 -1.61,1.071 -2.94,1.071 -0.434,0 -0.812,-0.028 -1.134,-0.084 -0.322,-0.056 -0.616,-0.14 -0.882,-0.252 v -2.331 c 0.168,0.07 0.385,0.126 0.651,0.168 0.252,0.042 0.56,0.063 0.924,0.063 0.518,0 0.924,-0.133 1.218,-0.399 0.308,-0.252 0.462,-0.679 0.462,-1.281 V 95.9861 h 2.667 z"
                 fill="#2fac66"
                 id="path6"
                 style="stroke-width:2.43385" />
              <path
                 d="m 40.625,104.848 c -0.49,0.658 -1.134,1.183 -1.932,1.575 -0.798,0.378 -1.694,0.567 -2.688,0.567 -0.938,0 -1.778,-0.154 -2.52,-0.462 -0.728,-0.308 -1.344,-0.721 -1.848,-1.239 -0.49,-0.518 -0.868,-1.12 -1.134,-1.806 -0.252,-0.7 -0.378,-1.435 -0.378,-2.205 0,-0.784 0.119,-1.5189 0.357,-2.2049 0.252,-0.7 0.609,-1.309 1.071,-1.827 0.462,-0.518 1.029,-0.924 1.701,-1.218 0.672,-0.308 1.442,-0.462 2.31,-0.462 1.456,0 2.632,0.448 3.528,1.344 0.896,0.882 1.344,2.016 1.344,3.4019 0,0.294 -0.021,0.574 -0.063,0.84 -0.028,0.266 -0.063,0.49 -0.105,0.672 h -7.413 c 0.084,0.868 0.413,1.547 0.987,2.037 0.574,0.49 1.309,0.735 2.205,0.735 0.574,0 1.092,-0.112 1.554,-0.336 0.462,-0.238 0.833,-0.546 1.113,-0.924 z m -5.061,-7.0559 c -0.644,0 -1.183,0.168 -1.617,0.504 -0.434,0.322 -0.742,0.826 -0.924,1.512 h 4.767 c -0.014,-0.518 -0.217,-0.98 -0.609,-1.386 -0.378,-0.42 -0.917,-0.63 -1.617,-0.63 z"
                 fill="#2fac66"
                 id="path8"
                 style="stroke-width:2.43385" />
              <path
                 d="m 49.8911,101.992 v -6.0059 h 2.688 v 5.8799 c 0,1.582 -0.441,2.835 -1.323,3.759 -0.882,0.91 -2.093,1.365 -3.633,1.365 -1.54,0 -2.751,-0.455 -3.633,-1.365 -0.868,-0.924 -1.302,-2.177 -1.302,-3.759 v -5.8799 h 2.688 v 6.0059 c 0,0.756 0.196,1.358 0.588,1.806 0.392,0.448 0.952,0.672 1.68,0.672 0.714,0 1.267,-0.224 1.659,-0.672 0.392,-0.448 0.588,-1.05 0.588,-1.806 z"
                 fill="#2fac66"
                 id="path10"
                 style="stroke-width:2.43385" />
              <path
                 d="M 55.5314,106.57 V 95.9861 h 2.667 v 0.84 c 0.364,-0.35 0.798,-0.644 1.302,-0.882 0.518,-0.252 1.127,-0.378 1.827,-0.378 0.574,0 1.106,0.098 1.596,0.294 0.504,0.196 0.938,0.49 1.302,0.882 0.378,0.392 0.672,0.882 0.882,1.47 0.224,0.588 0.336,1.274 0.336,2.0579 v 6.3 h -2.709 v -6.195 c 0,-0.6999 -0.189,-1.2529 -0.567,-1.6589 -0.364,-0.42 -0.868,-0.63 -1.512,-0.63 -0.672,0 -1.204,0.182 -1.596,0.546 -0.378,0.35 -0.665,0.693 -0.861,1.029 v 6.9089 z"
                 fill="#2fac66"
                 id="path12"
                 style="stroke-width:2.43385" />
              <path
                 d="m 78.2158,104.848 c -0.49,0.658 -1.134,1.183 -1.932,1.575 -0.798,0.378 -1.694,0.567 -2.688,0.567 -0.938,0 -1.778,-0.154 -2.52,-0.462 -0.728,-0.308 -1.344,-0.721 -1.848,-1.239 -0.49,-0.518 -0.868,-1.12 -1.134,-1.806 -0.252,-0.7 -0.378,-1.435 -0.378,-2.205 0,-0.784 0.119,-1.5189 0.357,-2.2049 0.252,-0.7 0.609,-1.309 1.071,-1.827 0.462,-0.518 1.029,-0.924 1.701,-1.218 0.672,-0.308 1.442,-0.462 2.31,-0.462 1.456,0 2.632,0.448 3.528,1.344 0.896,0.882 1.344,2.016 1.344,3.4019 0,0.294 -0.021,0.574 -0.063,0.84 -0.028,0.266 -0.063,0.49 -0.105,0.672 h -7.413 c 0.084,0.868 0.413,1.547 0.987,2.037 0.574,0.49 1.309,0.735 2.205,0.735 0.574,0 1.092,-0.112 1.554,-0.336 0.462,-0.238 0.833,-0.546 1.113,-0.924 z m -5.061,-7.0559 c -0.644,0 -1.183,0.168 -1.617,0.504 -0.434,0.322 -0.742,0.826 -0.924,1.512 h 4.767 c -0.014,-0.518 -0.217,-0.98 -0.609,-1.386 -0.378,-0.42 -0.917,-0.63 -1.617,-0.63 z"
                 fill="#2fac66"
                 id="path14"
                 style="stroke-width:2.43385" />
            </g>
            <g
               id="g1012"
               transform="translate(-42.305786,18.709378)"
               style="stroke-width:1.13436">
              <path
                 d="M 83.5309,106.549 V 94.7681 l -3.045,1.722 -1.407,-2.016 4.536,-2.625 h 2.751 v 14.6999 z"
                 fill="#2fac66"
                 id="path16"
                 style="stroke-width:2.43385" />
              <path
                 d="m 89.4091,105.037 1.764,-1.638 c 0.322,0.406 0.679,0.742 1.071,1.008 0.406,0.266 0.861,0.399 1.365,0.399 0.42,0 0.742,-0.105 0.966,-0.315 0.224,-0.21 0.336,-0.469 0.336,-0.777 0,-0.462 -0.259,-0.798 -0.777,-1.008 -0.518,-0.21 -1.085,-0.441 -1.701,-0.693 -0.602,-0.266 -1.162,-0.623 -1.68,-1.071 -0.518,-0.462 -0.777,-1.1689 -0.777,-2.1209 0,-0.924 0.35,-1.694 1.05,-2.31 0.714,-0.63 1.617,-0.945 2.709,-0.945 0.812,0 1.561,0.175 2.247,0.525 0.7,0.336 1.246,0.763 1.638,1.281 l -1.785,1.596 c -0.266,-0.35 -0.574,-0.637 -0.924,-0.861 -0.35,-0.238 -0.735,-0.357 -1.155,-0.357 -0.392,0 -0.693,0.091 -0.903,0.273 -0.21,0.168 -0.315,0.399 -0.315,0.693 0,0.448 0.259,0.777 0.777,0.987 0.518,0.21 1.078,0.4409 1.68,0.6929 0.616,0.252 1.183,0.609 1.701,1.071 0.518,0.448 0.777,1.141 0.777,2.079 -0.014,0.56 -0.126,1.057 -0.336,1.491 -0.21,0.42 -0.49,0.777 -0.84,1.071 -0.35,0.28 -0.756,0.497 -1.218,0.651 -0.462,0.154 -0.938,0.231 -1.428,0.231 -0.938,0 -1.757,-0.175 -2.457,-0.525 -0.686,-0.35 -1.281,-0.826 -1.785,-1.428 z"
                 fill="#2fac66"
                 id="path18"
                 style="stroke-width:2.43385" />
              <path
                 d="m 104.93,95.5661 c 0.854,0 1.638,0.154 2.352,0.462 0.714,0.294 1.323,0.7 1.827,1.218 0.518,0.504 0.917,1.106 1.197,1.806 0.28,0.7 0.42,1.4419 0.42,2.2259 0,0.784 -0.14,1.526 -0.42,2.226 -0.28,0.7 -0.679,1.309 -1.197,1.827 -0.504,0.504 -1.113,0.91 -1.827,1.218 -0.714,0.294 -1.498,0.441 -2.352,0.441 -0.854,0 -1.638,-0.147 -2.352,-0.441 -0.714,-0.308 -1.33,-0.714 -1.848,-1.218 -0.504,-0.518 -0.8962,-1.127 -1.1762,-1.827 -0.28,-0.7 -0.42,-1.442 -0.42,-2.226 0,-0.784 0.14,-1.5259 0.42,-2.2259 0.28,-0.7 0.6722,-1.302 1.1762,-1.806 0.518,-0.518 1.134,-0.924 1.848,-1.218 0.714,-0.308 1.498,-0.462 2.352,-0.462 z m 0.042,8.9039 c 0.84,0 1.547,-0.301 2.121,-0.903 0.574,-0.616 0.861,-1.379 0.861,-2.289 0,-0.924 -0.287,-1.6869 -0.861,-2.2889 -0.574,-0.602 -1.281,-0.903 -2.121,-0.903 -0.882,0 -1.617,0.301 -2.205,0.903 -0.574,0.602 -0.861,1.3649 -0.861,2.2889 0,0.924 0.287,1.687 0.861,2.289 0.588,0.602 1.323,0.903 2.205,0.903 z"
                 fill="#2fac66"
                 id="path20"
                 style="stroke-width:2.43385" />
              <path
                 d="M 113.158,106.57 V 90.8201 h 2.667 V 106.57 Z"
                 fill="#2fac66"
                 id="path22"
                 style="stroke-width:2.43385" />
              <path
                 d="m 125.996,101.992 v -6.0059 h 2.688 v 5.8799 c 0,1.582 -0.441,2.835 -1.323,3.759 -0.882,0.91 -2.093,1.365 -3.633,1.365 -1.54,0 -2.751,-0.455 -3.633,-1.365 -0.868,-0.924 -1.302,-2.177 -1.302,-3.759 v -5.8799 h 2.688 v 6.0059 c 0,0.756 0.196,1.358 0.588,1.806 0.392,0.448 0.952,0.672 1.68,0.672 0.714,0 1.267,-0.224 1.659,-0.672 0.392,-0.448 0.588,-1.05 0.588,-1.806 z"
                 fill="#2fac66"
                 id="path24"
                 style="stroke-width:2.43385" />
              <path
                 d="m 132.472,102.706 v -4.2839 h -1.974 v -2.436 h 1.974 v -2.646 h 2.688 v 2.646 h 3.234 v 2.436 h -3.234 v 4.2839 c 0,0.588 0.147,1.008 0.441,1.26 0.308,0.252 0.721,0.378 1.239,0.378 0.364,0 0.672,-0.021 0.924,-0.063 0.252,-0.042 0.469,-0.098 0.651,-0.168 v 2.331 c -0.266,0.112 -0.567,0.196 -0.903,0.252 -0.322,0.056 -0.7,0.084 -1.134,0.084 -1.316,0 -2.296,-0.357 -2.94,-1.071 -0.644,-0.714 -0.966,-1.715 -0.966,-3.003 z"
                 fill="#2fac66"
                 id="path26"
                 style="stroke-width:2.43385" />
              <path
                 d="m 142.126,94.1381 c -0.476,0 -0.889,-0.168 -1.239,-0.504 -0.336,-0.35 -0.504,-0.763 -0.504,-1.239 0,-0.476 0.168,-0.882 0.504,-1.218 0.35,-0.35 0.763,-0.525 1.239,-0.525 0.476,0 0.882,0.175 1.218,0.525 0.336,0.336 0.504,0.742 0.504,1.218 0,0.476 -0.168,0.889 -0.504,1.239 -0.336,0.336 -0.742,0.504 -1.218,0.504 z M 140.782,106.57 V 95.9861 h 2.667 V 106.57 Z"
                 fill="#2fac66"
                 id="path28"
                 style="stroke-width:2.43385" />
              <path
                 d="m 151.688,95.5661 c 0.854,0 1.638,0.154 2.352,0.462 0.714,0.294 1.323,0.7 1.827,1.218 0.518,0.504 0.917,1.106 1.197,1.806 0.28,0.7 0.42,1.4419 0.42,2.2259 0,0.784 -0.14,1.526 -0.42,2.226 -0.28,0.7 -0.679,1.309 -1.197,1.827 -0.504,0.504 -1.113,0.91 -1.827,1.218 -0.714,0.294 -1.498,0.441 -2.352,0.441 -0.854,0 -1.638,-0.147 -2.352,-0.441 -0.714,-0.308 -1.33,-0.714 -1.848,-1.218 -0.504,-0.518 -0.896,-1.127 -1.176,-1.827 -0.28,-0.7 -0.42,-1.442 -0.42,-2.226 0,-0.784 0.14,-1.5259 0.42,-2.2259 0.28,-0.7 0.672,-1.302 1.176,-1.806 0.518,-0.518 1.134,-0.924 1.848,-1.218 0.714,-0.308 1.498,-0.462 2.352,-0.462 z m 0.042,8.9039 c 0.84,0 1.547,-0.301 2.121,-0.903 0.574,-0.616 0.861,-1.379 0.861,-2.289 0,-0.924 -0.287,-1.6869 -0.861,-2.2889 -0.574,-0.602 -1.281,-0.903 -2.121,-0.903 -0.882,0 -1.617,0.301 -2.205,0.903 -0.574,0.602 -0.861,1.3649 -0.861,2.2889 0,0.924 0.287,1.687 0.861,2.289 0.588,0.602 1.323,0.903 2.205,0.903 z"
                 fill="#2fac66"
                 id="path30"
                 style="stroke-width:2.43385" />
              <path
                 d="M 159.916,106.57 V 95.9861 h 2.667 v 0.84 c 0.364,-0.35 0.798,-0.644 1.302,-0.882 0.518,-0.252 1.127,-0.378 1.827,-0.378 0.574,0 1.106,0.098 1.596,0.294 0.504,0.196 0.938,0.49 1.302,0.882 0.378,0.392 0.672,0.882 0.882,1.47 0.224,0.588 0.336,1.274 0.336,2.0579 v 6.3 h -2.709 v -6.195 c 0,-0.6999 -0.189,-1.2529 -0.567,-1.6589 -0.364,-0.42 -0.868,-0.63 -1.512,-0.63 -0.672,0 -1.204,0.182 -1.596,0.546 -0.378,0.35 -0.665,0.693 -0.861,1.029 v 6.9089 z"
                 fill="#2fac66"
                 id="path32"
                 style="stroke-width:2.43385" />
            </g>
          </g>
        </g>
      </g>
    </g>
  </g>
</svg>
