<?xml version="1.0" encoding="UTF-8" standalone="no"?>
<svg
   xmlns:dc="http://purl.org/dc/elements/1.1/"
   xmlns:cc="http://creativecommons.org/ns#"
   xmlns:rdf="http://www.w3.org/1999/02/22-rdf-syntax-ns#"
   xmlns:svg="http://www.w3.org/2000/svg"
   xmlns="http://www.w3.org/2000/svg"
   xmlns:sodipodi="http://sodipodi.sourceforge.net/DTD/sodipodi-0.dtd"
   xmlns:inkscape="http://www.inkscape.org/namespaces/inkscape"
   width="80"
   height="80"
   viewBox="0 0 80 80"
   fill="none"
   version="1.1"
   id="svg102"
   sodipodi:docname="logo1j1s-france-relance_adj.svg"
   inkscape:version="1.0.2 (1.0.2+r75+1)">
  <metadata
     id="metadata108">
    <rdf:RDF>
      <cc:Work
         rdf:about="">
        <dc:format>image/svg+xml</dc:format>
        <dc:type
           rdf:resource="http://purl.org/dc/dcmitype/StillImage" />
        <dc:title></dc:title>
      </cc:Work>
    </rdf:RDF>
  </metadata>
  <defs
     id="defs106" />
  <sodipodi:namedview
     pagecolor="#ffffff"
     bordercolor="#666666"
     borderopacity="1"
     objecttolerance="10"
     gridtolerance="10"
     guidetolerance="10"
     inkscape:pageopacity="0"
     inkscape:pageshadow="2"
     inkscape:window-width="2560"
     inkscape:window-height="1385"
     id="namedview104"
     showgrid="false"
     inkscape:zoom="8.3214286"
     inkscape:cx="85"
     inkscape:cy="56"
     inkscape:window-x="0"
     inkscape:window-y="27"
     inkscape:window-maximized="1"
     inkscape:current-layer="svg102" />
  <g
     id="g1001"
     transform="matrix(0.47106063,0,0,0.47106063,3.5766418e-4,13.663)"
     style="stroke-width:2.12287">
    <path
       d="M 0,100.648 H 2.163 L 2.961,97.7921 H 0 v -2.163 h 3.549 l 1.029,-3.759 h 2.394 l -1.029,3.759 h 2.94 l 1.029,-3.759 h 2.394 l -1.029,3.759 h 1.533 v 2.163 h -2.121 l -0.798,2.8559 h 2.919 v 2.163 H 9.303 L 8.274,106.57 H 5.88 l 1.029,-3.759 H 3.969 L 2.94,106.57 H 0.546 l 1.029,-3.759 H 0 Z m 4.557,0 h 2.94 l 0.798,-2.8559 h -2.94 z"
       fill="#2fac66"
       id="path2"
       style="stroke-width:4.55481" />
    <path
       d="M 18.2136,106.549 V 94.7681 l -3.045,1.722 -1.407,-2.016 4.536,-2.625 h 2.751 v 14.6999 z"
       fill="#2fac66"
       id="path4"
       style="stroke-width:4.55481" />
    <path
       d="m 26.3178,94.1381 c -0.476,0 -0.889,-0.168 -1.239,-0.504 -0.336,-0.35 -0.504,-0.763 -0.504,-1.239 0,-0.476 0.168,-0.882 0.504,-1.218 0.35,-0.35 0.763,-0.525 1.239,-0.525 0.462,0 0.861,0.175 1.197,0.525 0.35,0.336 0.525,0.742 0.525,1.218 0,0.476 -0.175,0.889 -0.525,1.239 -0.336,0.336 -0.735,0.504 -1.197,0.504 z m 1.365,13.5659 c 0,1.316 -0.322,2.331 -0.966,3.045 -0.63,0.714 -1.61,1.071 -2.94,1.071 -0.434,0 -0.812,-0.028 -1.134,-0.084 -0.322,-0.056 -0.616,-0.14 -0.882,-0.252 v -2.331 c 0.168,0.07 0.385,0.126 0.651,0.168 0.252,0.042 0.56,0.063 0.924,0.063 0.518,0 0.924,-0.133 1.218,-0.399 0.308,-0.252 0.462,-0.679 0.462,-1.281 V 95.9861 h 2.667 z"
       fill="#2fac66"
       id="path6"
       style="stroke-width:4.55481" />
    <path
       d="m 40.625,104.848 c -0.49,0.658 -1.134,1.183 -1.932,1.575 -0.798,0.378 -1.694,0.567 -2.688,0.567 -0.938,0 -1.778,-0.154 -2.52,-0.462 -0.728,-0.308 -1.344,-0.721 -1.848,-1.239 -0.49,-0.518 -0.868,-1.12 -1.134,-1.806 -0.252,-0.7 -0.378,-1.435 -0.378,-2.205 0,-0.784 0.119,-1.5189 0.357,-2.2049 0.252,-0.7 0.609,-1.309 1.071,-1.827 0.462,-0.518 1.029,-0.924 1.701,-1.218 0.672,-0.308 1.442,-0.462 2.31,-0.462 1.456,0 2.632,0.448 3.528,1.344 0.896,0.882 1.344,2.016 1.344,3.4019 0,0.294 -0.021,0.574 -0.063,0.84 -0.028,0.266 -0.063,0.49 -0.105,0.672 h -7.413 c 0.084,0.868 0.413,1.547 0.987,2.037 0.574,0.49 1.309,0.735 2.205,0.735 0.574,0 1.092,-0.112 1.554,-0.336 0.462,-0.238 0.833,-0.546 1.113,-0.924 z m -5.061,-7.0559 c -0.644,0 -1.183,0.168 -1.617,0.504 -0.434,0.322 -0.742,0.826 -0.924,1.512 h 4.767 c -0.014,-0.518 -0.217,-0.98 -0.609,-1.386 -0.378,-0.42 -0.917,-0.63 -1.617,-0.63 z"
       fill="#2fac66"
       id="path8"
       style="stroke-width:4.55481" />
    <path
       d="m 49.8911,101.992 v -6.0059 h 2.688 v 5.8799 c 0,1.582 -0.441,2.835 -1.323,3.759 -0.882,0.91 -2.093,1.365 -3.633,1.365 -1.54,0 -2.751,-0.455 -3.633,-1.365 -0.868,-0.924 -1.302,-2.177 -1.302,-3.759 v -5.8799 h 2.688 v 6.0059 c 0,0.756 0.196,1.358 0.588,1.806 0.392,0.448 0.952,0.672 1.68,0.672 0.714,0 1.267,-0.224 1.659,-0.672 0.392,-0.448 0.588,-1.05 0.588,-1.806 z"
       fill="#2fac66"
       id="path10"
       style="stroke-width:4.55481" />
    <path
       d="M 55.5314,106.57 V 95.9861 h 2.667 v 0.84 c 0.364,-0.35 0.798,-0.644 1.302,-0.882 0.518,-0.252 1.127,-0.378 1.827,-0.378 0.574,0 1.106,0.098 1.596,0.294 0.504,0.196 0.938,0.49 1.302,0.882 0.378,0.392 0.672,0.882 0.882,1.47 0.224,0.588 0.336,1.274 0.336,2.0579 v 6.3 h -2.709 v -6.195 c 0,-0.6999 -0.189,-1.2529 -0.567,-1.6589 -0.364,-0.42 -0.868,-0.63 -1.512,-0.63 -0.672,0 -1.204,0.182 -1.596,0.546 -0.378,0.35 -0.665,0.693 -0.861,1.029 v 6.9089 z"
       fill="#2fac66"
       id="path12"
       style="stroke-width:4.55481" />
    <path
       d="m 78.2158,104.848 c -0.49,0.658 -1.134,1.183 -1.932,1.575 -0.798,0.378 -1.694,0.567 -2.688,0.567 -0.938,0 -1.778,-0.154 -2.52,-0.462 -0.728,-0.308 -1.344,-0.721 -1.848,-1.239 -0.49,-0.518 -0.868,-1.12 -1.134,-1.806 -0.252,-0.7 -0.378,-1.435 -0.378,-2.205 0,-0.784 0.119,-1.5189 0.357,-2.2049 0.252,-0.7 0.609,-1.309 1.071,-1.827 0.462,-0.518 1.029,-0.924 1.701,-1.218 0.672,-0.308 1.442,-0.462 2.31,-0.462 1.456,0 2.632,0.448 3.528,1.344 0.896,0.882 1.344,2.016 1.344,3.4019 0,0.294 -0.021,0.574 -0.063,0.84 -0.028,0.266 -0.063,0.49 -0.105,0.672 h -7.413 c 0.084,0.868 0.413,1.547 0.987,2.037 0.574,0.49 1.309,0.735 2.205,0.735 0.574,0 1.092,-0.112 1.554,-0.336 0.462,-0.238 0.833,-0.546 1.113,-0.924 z m -5.061,-7.0559 c -0.644,0 -1.183,0.168 -1.617,0.504 -0.434,0.322 -0.742,0.826 -0.924,1.512 h 4.767 c -0.014,-0.518 -0.217,-0.98 -0.609,-1.386 -0.378,-0.42 -0.917,-0.63 -1.617,-0.63 z"
       fill="#2fac66"
       id="path14"
       style="stroke-width:4.55481" />
    <path
       d="M 83.5309,106.549 V 94.7681 l -3.045,1.722 -1.407,-2.016 4.536,-2.625 h 2.751 v 14.6999 z"
       fill="#2fac66"
       id="path16"
       style="stroke-width:4.55481" />
    <path
       d="m 89.4091,105.037 1.764,-1.638 c 0.322,0.406 0.679,0.742 1.071,1.008 0.406,0.266 0.861,0.399 1.365,0.399 0.42,0 0.742,-0.105 0.966,-0.315 0.224,-0.21 0.336,-0.469 0.336,-0.777 0,-0.462 -0.259,-0.798 -0.777,-1.008 -0.518,-0.21 -1.085,-0.441 -1.701,-0.693 -0.602,-0.266 -1.162,-0.623 -1.68,-1.071 -0.518,-0.462 -0.777,-1.1689 -0.777,-2.1209 0,-0.924 0.35,-1.694 1.05,-2.31 0.714,-0.63 1.617,-0.945 2.709,-0.945 0.812,0 1.561,0.175 2.247,0.525 0.7,0.336 1.246,0.763 1.638,1.281 l -1.785,1.596 c -0.266,-0.35 -0.574,-0.637 -0.924,-0.861 -0.35,-0.238 -0.735,-0.357 -1.155,-0.357 -0.392,0 -0.693,0.091 -0.903,0.273 -0.21,0.168 -0.315,0.399 -0.315,0.693 0,0.448 0.259,0.777 0.777,0.987 0.518,0.21 1.078,0.4409 1.68,0.6929 0.616,0.252 1.183,0.609 1.701,1.071 0.518,0.448 0.777,1.141 0.777,2.079 -0.014,0.56 -0.126,1.057 -0.336,1.491 -0.21,0.42 -0.49,0.777 -0.84,1.071 -0.35,0.28 -0.756,0.497 -1.218,0.651 -0.462,0.154 -0.938,0.231 -1.428,0.231 -0.938,0 -1.757,-0.175 -2.457,-0.525 -0.686,-0.35 -1.281,-0.826 -1.785,-1.428 z"
       fill="#2fac66"
       id="path18"
       style="stroke-width:4.55481" />
    <path
       d="m 104.93,95.5661 c 0.854,0 1.638,0.154 2.352,0.462 0.714,0.294 1.323,0.7 1.827,1.218 0.518,0.504 0.917,1.106 1.197,1.806 0.28,0.7 0.42,1.4419 0.42,2.2259 0,0.784 -0.14,1.526 -0.42,2.226 -0.28,0.7 -0.679,1.309 -1.197,1.827 -0.504,0.504 -1.113,0.91 -1.827,1.218 -0.714,0.294 -1.498,0.441 -2.352,0.441 -0.854,0 -1.638,-0.147 -2.352,-0.441 -0.714,-0.308 -1.33,-0.714 -1.848,-1.218 -0.504,-0.518 -0.8962,-1.127 -1.1762,-1.827 -0.28,-0.7 -0.42,-1.442 -0.42,-2.226 0,-0.784 0.14,-1.5259 0.42,-2.2259 0.28,-0.7 0.6722,-1.302 1.1762,-1.806 0.518,-0.518 1.134,-0.924 1.848,-1.218 0.714,-0.308 1.498,-0.462 2.352,-0.462 z m 0.042,8.9039 c 0.84,0 1.547,-0.301 2.121,-0.903 0.574,-0.616 0.861,-1.379 0.861,-2.289 0,-0.924 -0.287,-1.6869 -0.861,-2.2889 -0.574,-0.602 -1.281,-0.903 -2.121,-0.903 -0.882,0 -1.617,0.301 -2.205,0.903 -0.574,0.602 -0.861,1.3649 -0.861,2.2889 0,0.924 0.287,1.687 0.861,2.289 0.588,0.602 1.323,0.903 2.205,0.903 z"
       fill="#2fac66"
       id="path20"
       style="stroke-width:4.55481" />
    <path
       d="M 113.158,106.57 V 90.8201 h 2.667 V 106.57 Z"
       fill="#2fac66"
       id="path22"
       style="stroke-width:4.55481" />
    <path
       d="m 125.996,101.992 v -6.0059 h 2.688 v 5.8799 c 0,1.582 -0.441,2.835 -1.323,3.759 -0.882,0.91 -2.093,1.365 -3.633,1.365 -1.54,0 -2.751,-0.455 -3.633,-1.365 -0.868,-0.924 -1.302,-2.177 -1.302,-3.759 v -5.8799 h 2.688 v 6.0059 c 0,0.756 0.196,1.358 0.588,1.806 0.392,0.448 0.952,0.672 1.68,0.672 0.714,0 1.267,-0.224 1.659,-0.672 0.392,-0.448 0.588,-1.05 0.588,-1.806 z"
       fill="#2fac66"
       id="path24"
       style="stroke-width:4.55481" />
    <path
       d="m 132.472,102.706 v -4.2839 h -1.974 v -2.436 h 1.974 v -2.646 h 2.688 v 2.646 h 3.234 v 2.436 h -3.234 v 4.2839 c 0,0.588 0.147,1.008 0.441,1.26 0.308,0.252 0.721,0.378 1.239,0.378 0.364,0 0.672,-0.021 0.924,-0.063 0.252,-0.042 0.469,-0.098 0.651,-0.168 v 2.331 c -0.266,0.112 -0.567,0.196 -0.903,0.252 -0.322,0.056 -0.7,0.084 -1.134,0.084 -1.316,0 -2.296,-0.357 -2.94,-1.071 -0.644,-0.714 -0.966,-1.715 -0.966,-3.003 z"
       fill="#2fac66"
       id="path26"
       style="stroke-width:4.55481" />
    <path
       d="m 142.126,94.1381 c -0.476,0 -0.889,-0.168 -1.239,-0.504 -0.336,-0.35 -0.504,-0.763 -0.504,-1.239 0,-0.476 0.168,-0.882 0.504,-1.218 0.35,-0.35 0.763,-0.525 1.239,-0.525 0.476,0 0.882,0.175 1.218,0.525 0.336,0.336 0.504,0.742 0.504,1.218 0,0.476 -0.168,0.889 -0.504,1.239 -0.336,0.336 -0.742,0.504 -1.218,0.504 z M 140.782,106.57 V 95.9861 h 2.667 V 106.57 Z"
       fill="#2fac66"
       id="path28"
       style="stroke-width:4.55481" />
    <path
       d="m 151.688,95.5661 c 0.854,0 1.638,0.154 2.352,0.462 0.714,0.294 1.323,0.7 1.827,1.218 0.518,0.504 0.917,1.106 1.197,1.806 0.28,0.7 0.42,1.4419 0.42,2.2259 0,0.784 -0.14,1.526 -0.42,2.226 -0.28,0.7 -0.679,1.309 -1.197,1.827 -0.504,0.504 -1.113,0.91 -1.827,1.218 -0.714,0.294 -1.498,0.441 -2.352,0.441 -0.854,0 -1.638,-0.147 -2.352,-0.441 -0.714,-0.308 -1.33,-0.714 -1.848,-1.218 -0.504,-0.518 -0.896,-1.127 -1.176,-1.827 -0.28,-0.7 -0.42,-1.442 -0.42,-2.226 0,-0.784 0.14,-1.5259 0.42,-2.2259 0.28,-0.7 0.672,-1.302 1.176,-1.806 0.518,-0.518 1.134,-0.924 1.848,-1.218 0.714,-0.308 1.498,-0.462 2.352,-0.462 z m 0.042,8.9039 c 0.84,0 1.547,-0.301 2.121,-0.903 0.574,-0.616 0.861,-1.379 0.861,-2.289 0,-0.924 -0.287,-1.6869 -0.861,-2.2889 -0.574,-0.602 -1.281,-0.903 -2.121,-0.903 -0.882,0 -1.617,0.301 -2.205,0.903 -0.574,0.602 -0.861,1.3649 -0.861,2.2889 0,0.924 0.287,1.687 0.861,2.289 0.588,0.602 1.323,0.903 2.205,0.903 z"
       fill="#2fac66"
       id="path30"
       style="stroke-width:4.55481" />
    <path
       d="M 159.916,106.57 V 95.9861 h 2.667 v 0.84 c 0.364,-0.35 0.798,-0.644 1.302,-0.882 0.518,-0.252 1.127,-0.378 1.827,-0.378 0.574,0 1.106,0.098 1.596,0.294 0.504,0.196 0.938,0.49 1.302,0.882 0.378,0.392 0.672,0.882 0.882,1.47 0.224,0.588 0.336,1.274 0.336,2.0579 v 6.3 h -2.709 v -6.195 c 0,-0.6999 -0.189,-1.2529 -0.567,-1.6589 -0.364,-0.42 -0.868,-0.63 -1.512,-0.63 -0.672,0 -1.204,0.182 -1.596,0.546 -0.378,0.35 -0.665,0.693 -0.861,1.029 v 6.9089 z"
       fill="#2fac66"
       id="path32"
       style="stroke-width:4.55481" />
    <path
       d="M 84.9978,80 C 62.9439,80 45,62.0561 45,39.9978 45,17.9439 62.9439,0 84.9978,0 107.052,0 124.996,17.9439 124.996,39.9978 125,62.0561 107.056,80 84.9978,80 Z m 0,-77.80125 c -20.8417,0 -37.799,16.95735 -37.799,37.79905 0,20.8417 16.9573,37.799 37.799,37.799 20.8412,0 37.7992,-16.9573 37.7992,-37.799 C 122.801,19.1561 105.844,2.19875 84.9978,2.19875 Z"
       fill="#2fac66"
       id="path34"
       style="stroke-width:4.55481" />
    <path
       d="m 84.9967,60.3617 c -11.2282,0 -20.3639,-9.1357 -20.3639,-20.3639 0,-11.2282 9.1357,-20.3639 20.3639,-20.3639 11.2282,0 20.3643,9.1357 20.3643,20.3639 0,11.2282 -9.1361,20.3639 -20.3643,20.3639 z m 0,-39.9005 c -10.7726,0 -19.5366,8.764 -19.5366,19.5366 0,10.7725 8.764,19.5366 19.5366,19.5366 10.7725,0 19.5363,-8.7641 19.5363,-19.5366 0.005,-10.7726 -8.7638,-19.5366 -19.5363,-19.5366 z"
       fill="#2fac66"
       id="path36"
       style="stroke-width:4.55481" />
    <path
       d="m 104.954,35.4187 -6.6962,11.5971 6.2832,3.6277 6.696,-11.5971 z"
       fill="#e20e18"
       id="path38"
       style="stroke-width:4.55481" />
    <path
       d="m 98.6724,31.7897 -6.6958,11.5971 6.2832,3.6278 6.6962,-11.5972 z"
       fill="#ffffff"
       id="path40"
       style="stroke-width:4.55481" />
    <path
       d="m 92.395,28.1631 -6.6958,11.5972 6.2832,3.6277 6.6958,-11.5971 z"
       fill="#253574"
       id="path42"
       style="stroke-width:4.55481" />
    <path
       d="M 92.6632,29.1766 110.227,39.3165 104.272,49.629 86.7084,39.4891 Z m -0.2743,-1.0131 -6.6936,11.5954 18.8507,10.8832 6.694,-11.5954 z"
       fill="#253574"
       id="path44"
       style="stroke-width:4.55481" />
    <path
       d="M 92.6352,27.3329 79.3281,50.388 80.0408,50.7994 93.3479,27.7442 Z"
       fill="#253574"
       id="path46"
       style="stroke-width:4.55481" />
    <path
       d="M 77.6035,28.1135 58.7539,38.9966 65.4497,50.5938 84.2993,39.7106 Z"
       fill="#253574"
       id="path48"
       style="stroke-width:4.55481" />
    <path
       d="m 73.536,43.8954 0.2345,-0.5132 0.5397,0.0664 -0.407,-0.3628 0.2433,-0.491 -0.4733,0.2743 -0.4026,-0.354 0.1017,0.5265 -0.4778,0.2743 0.5353,0.0442 z"
       fill="#ffe910"
       id="path50"
       style="stroke-width:4.55481" />
    <path
       d="m 69.3045,36.3259 0.2345,-0.5 0.5397,0.0531 -0.4026,-0.3627 0.2389,-0.4867 -0.4689,0.2699 -0.407,-0.3451 0.1061,0.522 -0.4733,0.2699 0.5264,0.0398 z"
       fill="#ffe910"
       id="path52"
       style="stroke-width:4.55481" />
    <path
       d="m 67.4808,42.3381 0.2345,-0.4999 0.5486,0.0486 -0.4026,-0.3627 0.2522,-0.4822 -0.4778,0.2787 -0.4159,-0.3495 0.1017,0.5264 -0.4777,0.2787 0.5264,0.0266 z"
       fill="#ffe910"
       id="path54"
       style="stroke-width:4.55481" />
    <path
       d="m 75.324,37.7946 0.2345,-0.4999 0.5442,0.0531 -0.3982,-0.3716 0.2433,-0.469 -0.4733,0.2699 -0.4115,-0.3495 0.1018,0.5309 -0.4734,0.2743 0.522,0.0265 z"
       fill="#ffe910"
       id="path56"
       style="stroke-width:4.55481" />
    <path
       d="m 71.5902,35.6932 0.2389,-0.5043 0.5441,0.0486 -0.4025,-0.3583 0.2433,-0.4867 -0.4734,0.2743 -0.4114,-0.3583 0.1017,0.5353 -0.4778,0.2787 0.5309,0.0354 z"
       fill="#ffe910"
       id="path58"
       style="stroke-width:4.55481" />
    <path
       d="m 73.786,36.2816 0.2389,-0.5043 0.5442,0.0487 -0.407,-0.3672 0.2433,-0.4823 -0.4734,0.2699 -0.407,-0.3495 0.0929,0.5353 -0.4734,0.2699 0.5353,0.0354 z"
       fill="#ffe910"
       id="path60"
       style="stroke-width:4.55481" />
    <path
       d="m 75.7699,39.9669 0.2344,-0.4955 0.5486,0.0487 -0.4026,-0.3628 0.2478,-0.4911 -0.4778,0.2743 -0.4114,-0.3495 0.0973,0.5309 -0.4734,0.2743 0.5309,0.0442 z"
       fill="#ffe910"
       id="path62"
       style="stroke-width:4.55481" />
    <path
       d="m 75.1561,42.1966 0.2389,-0.5088 0.5486,0.0575 -0.4071,-0.3672 0.2478,-0.4866 -0.4734,0.2743 -0.4158,-0.3495 0.1017,0.5309 -0.4734,0.2743 0.5309,0.0354 z"
       fill="#ffe910"
       id="path64"
       style="stroke-width:4.55481" />
    <path
       d="m 71.3485,44.3953 0.2345,-0.5087 0.553,0.0531 -0.407,-0.3672 0.2477,-0.4867 -0.4778,0.2743 -0.4114,-0.3495 0.0973,0.5309 -0.4778,0.2743 0.5309,0.0398 z"
       fill="#ffe910"
       id="path66"
       style="stroke-width:4.55481" />
    <path
       d="m 69.2074,43.7715 0.2389,-0.4955 0.5397,0.0443 -0.3982,-0.3584 0.2478,-0.491 -0.4778,0.2743 -0.407,-0.3451 0.0929,0.5264 -0.4734,0.2743 0.5353,0.0399 z"
       fill="#ffe910"
       id="path68"
       style="stroke-width:4.55481" />
    <path
       d="m 66.9071,40.25 0.2345,-0.5 0.5486,0.0487 -0.407,-0.3672 0.2521,-0.4866 -0.4822,0.2743 -0.4114,-0.3451 0.0973,0.5309 -0.4734,0.2698 0.5309,0.0399 z"
       fill="#ffe910"
       id="path70"
       style="stroke-width:4.55481" />
    <path
       d="m 67.454,38.091 0.2345,-0.4999 0.5441,0.0531 -0.4026,-0.3628 0.2434,-0.4822 -0.469,0.2699 -0.4203,-0.354 0.1062,0.5354 -0.4778,0.2742 0.5309,0.0399 z"
       fill="#ffe910"
       id="path72"
       style="stroke-width:4.55481" />
    <path
       d="m 77.3689,27.3298 -0.7127,0.4114 13.3098,23.0525 0.7126,-0.4115 z"
       fill="#253574"
       id="path74"
       style="stroke-width:4.55481" />
    <path
       d="m 54.8633,25.4914 2.8579,-4.9992 1.4467,0.8273 -1.8625,3.2605 2.035,1.1635 1.5838,-2.7694 1.4467,0.8273 -1.5838,2.7694 3.6498,2.0882 -0.9954,1.7386 z"
       fill="#2fac66"
       id="path76"
       style="stroke-width:4.55481" />
    <path
       d="m 61.1211,16.4707 2.3182,-1.9334 c 1.6679,-1.3891 3.4109,-1.3935 4.5877,0.0177 0.7654,0.9202 0.8937,1.9732 0.4115,2.9818 l 5.1761,1.3804 -1.8094,1.5086 -4.5833,-1.3804 -0.792,0.6592 2.5571,3.0703 -1.5395,1.283 z m 2.6058,0 1.6324,1.9642 0.8671,-0.7211 c 0.6504,-0.5441 0.7123,-1.2387 0.1991,-1.8537 -0.4778,-0.5751 -1.1812,-0.6503 -1.836,-0.1061 z"
       fill="#2fac66"
       id="path78"
       style="stroke-width:4.55481" />
    <path
       d="m 75.3273,8.04288 2.5395,-0.66361 6.1096,8.61803 -2.0616,0.5353 -1.5617,-2.2474 -3.8268,0.9954 -0.2655,2.7252 -2.0616,0.5353 z m 3.995,4.74702 -2.2475,-3.25169 -0.376,3.93299 z"
       fill="#2fac66"
       id="path80"
       style="stroke-width:4.55481" />
    <path
       d="m 87.3801,6.42371 2.5173,0.52203 2.8712,7.89246 1.4555,-6.99438 1.9643,0.40702 -2.0129,9.67536 -2.5173,-0.522 -2.8712,-7.89251 -1.4555,6.99441 -1.9643,-0.407 z"
       fill="#2fac66"
       id="path82"
       style="stroke-width:4.55481" />
    <path
       d="m 103.878,21.2222 0.491,1.9333 c -1.469,0.407 -3.11,0.1195 -4.5168,-0.991 -2.4509,-1.9289 -2.6411,-5.1319 -0.8936,-7.3483 1.7474,-2.2165 4.9014,-2.7827 7.3524,-0.8539 1.407,1.1061 2.062,2.6456 2.031,4.1498 l -2,-0.0133 c 0.053,-0.9821 -0.305,-1.9643 -1.19,-2.6632 -1.464,-1.1503 -3.402,-0.8318 -4.574,0.6547 -1.1682,1.4865 -1.0266,3.4463 0.438,4.601 0.885,0.6946 1.92,0.814 2.862,0.5309 z"
       fill="#2fac66"
       id="path84"
       style="stroke-width:4.55481" />
    <path
       d="m 112.757,21.2752 2.787,5.039 -1.456,0.8052 -1.818,-3.2827 -2.048,1.1326 1.544,2.7916 -1.456,0.8051 -1.544,-2.7915 -2.221,1.2298 1.819,3.2871 -1.456,0.8052 -2.787,-5.039 z"
       fill="#2fac66"
       id="path86"
       style="stroke-width:4.55481" />
    <path
       d="m 62.1205,47.4833 1.3449,2.7031 c 0.9689,1.9466 0.5663,3.641 -1.075,4.4595 -1.0751,0.5353 -2.128,0.4114 -2.9951,-0.292 l -2.5394,4.716 -1.0485,-2.1103 2.4022,-4.1409 -0.4601,-0.9202 -3.5746,1.7785 -0.8937,-1.7962 z m -0.5973,2.5394 -2.2872,1.137 0.5044,1.0087 c 0.376,0.7565 1.0396,0.9777 1.7607,0.6238 0.6681,-0.3318 0.9025,-0.9998 0.5265,-1.7608 z"
       fill="#2fac66"
       id="path88"
       style="stroke-width:4.55481" />
    <path
       d="m 66.537,55.2961 4.1409,3.9994 -1.1547,1.1989 -2.6987,-2.6058 -1.628,1.6856 2.2961,2.2164 -1.1547,1.199 -2.2961,-2.2121 -1.7652,1.8272 2.6987,2.6057 -1.1547,1.1989 -4.1409,-3.9993 z"
       fill="#2fac66"
       id="path90"
       style="stroke-width:4.55481" />
    <path
       d="m 72.416,60.3661 1.8006,0.876 -3.5259,7.2466 3.3755,1.6413 -0.7963,1.6369 -5.1761,-2.5173 z"
       fill="#2fac66"
       id="path92"
       style="stroke-width:4.55481" />
    <path
       d="m 81.7583,63.6355 2.6146,0.2168 2.9111,10.1532 -2.1236,-0.177 -0.7299,-2.6367 -3.9374,-0.3274 -1.1547,2.4819 -2.1236,-0.177 z m 2.1944,5.8043 -1.0441,-3.8091 -1.6546,3.5879 z"
       fill="#2fac66"
       id="path94"
       style="stroke-width:4.55481" />
    <path
       d="m 88.9336,63.9275 2.4111,-0.8849 6.6051,5.1806 -2.4598,-6.7024 1.8802,-0.6902 3.4018,9.2728 -2.4108,0.8848 -6.6051,-5.1849 2.4598,6.7024 -1.8802,0.6901 z"
       fill="#2fac66"
       id="path96"
       style="stroke-width:4.55481" />
    <path
       d="m 108.98,59.5256 1.978,-0.2566 c 0.225,1.5086 -0.257,3.1012 -1.527,4.3665 -2.207,2.1988 -5.41,2.0041 -7.401,0.0044 -1.991,-1.9996 -2.1724,-5.2026 0.035,-7.4014 1.27,-1.2653 2.876,-1.7298 4.362,-1.5174 l -0.252,1.9864 c -0.969,-0.1726 -1.986,0.0663 -2.787,0.8627 -1.318,1.3139 -1.234,3.2782 0.102,4.6187 1.336,1.3404 3.3,1.4333 4.618,0.1194 0.797,-0.8008 1.04,-1.8183 0.872,-2.7827 z"
       fill="#2fac66"
       id="path98"
       style="stroke-width:4.55481" />
    <path
       d="m 105.613,52.2303 2.367,-5.2513 1.518,0.6813 -1.544,3.4242 2.136,0.9645 1.31,-2.9066 1.517,0.6813 -1.309,2.9066 2.314,1.044 1.544,-3.4242 1.517,0.6858 -2.367,5.2469 z"
       fill="#2fac66"
       id="path100"
       style="stroke-width:4.55481" />
  </g>
</svg>
